<?xml version="1.0" encoding="UTF-8"?><svg id="b" xmlns="http://www.w3.org/2000/svg" viewBox="0 0 296 148"><path d="M263.95,5.81c-5.66,0-10.34,.47-14.35,1.47-.25-.09-.51-.16-.77-.22-.63-.16-1.27-.24-1.92-.24h-23.9c-1.61,0-3.15,.48-4.44,1.34-.23-.15-.47-.29-.71-.42h0s-1.55-.82-1.55-.82l-1.11-.03c-.35-.05-.71-.07-1.06-.07h-22.54c-2.81,0-5.32,1.43-6.75,3.69-.16-.09-.32-.19-.48-.28-5.25-2.92-12.27-4.35-21.46-4.35-12.45,0-21.8,2.9-28.56,8.98-.19-.22-.39-.43-.6-.64-5.47-5.61-14.2-8.34-26.67-8.34-7.8,0-14.27,1.08-19.65,3.34-.6-.61-1.31-1.14-2.08-1.53l-1.28-.66-.92-.08c-.47-.09-.95-.13-1.44-.13h-22.32c-1.71,0-3.31,.53-4.62,1.45l-.4-.48-1.58-.45-.85-.41-.98-.03c-.36-.05-.72-.07-1.08-.07H27.62c-3.78,0-6.99,2.57-7.81,6.26-1.76,7.79-3.78,15.96-6.46,26.62-2.93,11.92-4.78,19.3-6.82,26.64l-.32,1.16,.03,.74c0,.08,0,.16,0,.24v69.72c0,4.41,3.59,8,8,8h22.25c1.75,0,3.41-.58,4.75-1.58,1.33,.99,2.98,1.58,4.77,1.58h22.32c3.08,0,5.79-1.71,7.12-4.35,5.45,3.54,12.93,5.28,22.69,5.28,12.28,0,21.57-3.06,28.34-9.46,.27,.31,.54,.61,.82,.9,5.54,5.76,14.26,8.55,26.67,8.55,7.21,0,13.39-1.07,18.63-3.24,1.45,1.43,3.43,2.31,5.62,2.31h22.54c2.03,0,3.94-.79,5.37-2.09,1.79,1.28,4.22,2.09,7.43,2.09h20.11c1.33,0,2.59-.33,3.69-.9,4.47,1.29,10.06,1.9,17,1.9,10.3,0,17.26-1.44,22.58-4.65,5.83-3.53,9.51-9.02,11.58-17.29,.27-1.1,1.02-4.12,1.1-16.63,1.6-1.04,2.83-2.65,3.36-4.58l.42-1.48,.06-.22c.19-.68,.38-1.33,.54-1.94l.02-.06,.02-.06c.25-1.01,.77-3.11,.57-27.67,.06-6.16,0-13.38-.02-14.87,.12-6.63,.06-16.12,.05-17.58,.15-6.19,.15-14.34,.15-15.26v-.93s-.04-.14-.04-.14c-.18-3.52-1.32-6.65-3.39-9.3-4.65-5.94-13.36-8.71-27.41-8.71h0Z" fill="#231f20" stroke="#231f20" stroke-linejoin="round"/><path d="M258.95,.81c-5.66,0-10.34,.47-14.35,1.47-.25-.09-.51-.16-.77-.22-.63-.16-1.27-.24-1.92-.24h-23.9c-1.61,0-3.15,.48-4.44,1.34-.23-.15-.47-.29-.71-.42h0s-1.55-.82-1.55-.82l-1.11-.03c-.35-.05-.71-.07-1.06-.07h-22.54c-2.81,0-5.32,1.43-6.75,3.69-.16-.09-.32-.19-.48-.28-5.25-2.92-12.27-4.35-21.46-4.35-12.45,0-21.8,2.9-28.56,8.98-.19-.22-.39-.43-.6-.64C123.29,3.61,114.57,.88,102.09,.88c-7.8,0-14.27,1.08-19.65,3.34-.6-.61-1.31-1.14-2.08-1.53l-1.28-.66-.92-.08c-.47-.09-.95-.13-1.44-.13h-22.32c-1.71,0-3.31,.53-4.62,1.45l-.4-.48-1.58-.45-.85-.41-.98-.03c-.36-.05-.72-.07-1.08-.07H22.62c-3.78,0-6.99,2.57-7.81,6.26-1.76,7.79-3.78,15.96-6.46,26.62-2.93,11.92-4.78,19.3-6.82,26.64l-.32,1.16,.03,.74c0,.08,0,.16,0,.24v69.72c0,4.41,3.59,8,8,8H31.49c1.75,0,3.41-.58,4.75-1.58,1.33,.99,2.98,1.58,4.77,1.58h22.32c3.08,0,5.79-1.71,7.12-4.35,5.45,3.54,12.93,5.28,22.69,5.28,12.28,0,21.57-3.06,28.34-9.46,.27,.31,.54,.61,.82,.9,5.54,5.76,14.26,8.55,26.67,8.55,7.21,0,13.39-1.07,18.63-3.24,1.45,1.43,3.43,2.31,5.62,2.31h22.54c2.03,0,3.94-.79,5.37-2.09,1.79,1.28,4.22,2.09,7.43,2.09h20.11c1.33,0,2.59-.33,3.69-.9,4.47,1.29,10.06,1.9,17,1.9,10.3,0,17.26-1.44,22.58-4.65,5.83-3.53,9.51-9.02,11.58-17.29,.27-1.1,1.02-4.12,1.1-16.63,1.6-1.04,2.83-2.65,3.36-4.58l.42-1.48,.06-.22c.19-.68,.38-1.33,.54-1.94l.02-.06,.02-.06c.25-1.01,.77-3.11,.57-27.67,.06-6.16,0-13.38-.02-14.87,.12-6.63,.06-16.12,.05-17.58,.15-6.19,.15-14.34,.15-15.26v-.93s-.04-.14-.04-.14c-.18-3.52-1.32-6.65-3.39-9.3-4.65-5.94-13.36-8.71-27.41-8.71h0Z" fill="#f0f4da" stroke="#231f20" stroke-linecap="round" stroke-linejoin="round"/><g><path d="M281.61,67.63s-7.54,3.08-22.49,3.08c-8.42,0-14.57,8.95-18.78,11.49,.53-.9,1.05-1.79,1.57-2.67v-17.62l-23.9,17.62c-1.86,3.51-4.58,8.51-9.09,15.74-1.65,2.43-1.72-8.94,.21-15.74v-17.62l-22.54,17.62c-1.08,4.83-2.22,9.71-3.63,15.51-.66-11.67-8.93-22.01-25.15-22.01s-25.44,10.14-30.64,24.36c.34-13.38-7.86-24.7-25.13-24.7-14.16,0-23.56,9.65-29.08,20.89,1.35-5.19,2.55-9.67,3.75-14.04v-17.62l-22.32,17.62c-1.07,4.87-2.79,11.95-4.29,18.1-1.57,.07-3.29,.07-5.01,.07s-3.36,0-4.94-.07c1.57-6.15,3.36-13.24,4.72-18.1v-17.62l-22.25,17.62c-1.72,7.58-3.65,15.45-6.51,26.83-1.41,5.73-6.87,9.21-6.87,9.21v17.62H31.49c1.07-4.94,2.79-11.88,4.29-17.89,1.57-.07,3.51-.08,5.22-.08v17.97h22.32c1.34-6.1,2.78-12.12,4.67-19.9-.81,14.09,6.49,20.83,25.14,20.83,16.2,0,25.52-5.71,30.66-20.11-.52,13.6,6.84,20.11,25.17,20.11,10.96,0,18.76-2.62,24.25-8.76v7.83h22.54c1.29-5.87,2.86-12.59,4.65-19.89h1c1.65,4.44,2.79,12.09,3.58,17.24,.07,2,1,2.65,3.58,2.65h20.11v-3.52c3.41,2.96,9.97,4.53,20.69,4.53,17.89,0,23.61-4.72,26.4-15.88,.96-3.87,.89-17.33,.84-21.67,1.39,.08,2.66,.17,3.67,.27,.36-1.29,.71-2.5,1-3.58,.54-2.17,.34-25.71,.34-25.71Zm-19.73,32.43c-8.23-1.65-8.8-3.29-8.08-6.08,.5-1.93,1.93-2.86,5.15-2.86,4.15,0,4.87,1.5,4.22,4.01-.14,.36-.21,.86-.43,1.43,1.43-.14,3.65-.14,6.08-.14,1.91,0,4.05,.05,6.06,.14-2.58,1.77-7.76,4.63-13,3.51Z" fill="#7b5ea7" stroke="#231f20" stroke-linecap="round" stroke-linejoin="round"/><path d="M281.59,52.76s-7.52,.72-22.46,.72c-8.42,0-14.57,8.95-18.78,11.49,.53-.9,1.05-1.79,1.57-2.67v-17.62l-23.9,17.62c-1.86,3.51-4.58,8.51-9.09,15.74-1.65,2.43-1.72-8.94,.21-15.74v-17.62l-22.54,17.62c-1.08,4.83-2.22,9.71-3.63,15.51-.66-11.67-8.93-22.01-25.15-22.01s-25.44,10.14-30.64,24.36c.34-13.38-7.86-24.7-25.13-24.7-14.16,0-23.56,9.65-29.08,20.89,1.35-5.19,2.55-9.67,3.75-14.04v-17.62l-22.32,17.62c-1.07,4.87-2.79,11.95-4.29,18.1-1.57,.07-3.29,.07-5.01,.07s-3.36,0-4.94-.07c1.57-6.15,3.36-13.24,4.72-18.1v-17.62l-22.25,17.62c-1.72,7.58-3.65,15.45-6.51,26.83-1.41,5.73-6.87,9.21-6.87,9.21v17.62H31.49c1.07-4.94,2.79-11.88,4.29-17.89,1.57-.07,3.51-.06,5.22-.06v17.95h22.32c1.34-6.1,2.78-12.12,4.67-19.9-.81,14.09,6.49,20.83,25.14,20.83,16.2,0,25.52-5.71,30.66-20.11-.52,13.6,6.84,20.11,25.17,20.11,10.96,0,18.76-2.62,24.25-8.76v7.83h22.54c1.29-5.87,2.86-12.59,4.65-19.89h1c1.65,4.44,2.79,12.09,3.58,17.24,.07,2,1,2.65,3.58,2.65h20.11v-3.52c3.41,2.96,9.97,4.53,20.69,4.53,17.89,0,23.61-4.72,26.4-15.88,.96-3.87,.89-17.33,.84-21.67,1.39,.08,2.66,.17,3.67,.27,.36-1.29,.71-2.5,1-3.58,.54-2.17,.31-23.34,.31-23.34Zm-19.7,30.07c-8.23-1.65-8.8-3.29-8.08-6.08,.5-1.93,1.93-2.86,5.15-2.86,4.15,0,4.87,1.5,4.22,4.01-.14,.36-.21,.86-.43,1.43,1.43-.14,3.65-.14,6.08-.14,1.91,0,4.05,.05,6.06,.14-2.58,1.77-7.76,4.63-13,3.51Z" fill="#12b2e2" stroke="#231f20" stroke-linecap="round" stroke-linejoin="round"/><path d="M281.64,35.11s-7.57,1.02-22.51,1.02c-8.42,0-14.57,8.95-18.78,11.49,.53-.9,1.05-1.79,1.57-2.67V27.33l-23.9,17.62c-1.86,3.51-4.58,8.51-9.09,15.74-1.65,2.43-1.72-8.94,.21-15.74V27.33l-22.54,17.62c-1.08,4.83-2.22,9.71-3.63,15.51-.66-11.67-8.93-22.01-25.15-22.01s-25.44,10.14-30.64,24.36c.34-13.38-7.86-24.7-25.13-24.7-14.16,0-23.56,9.65-29.08,20.89,1.35-5.19,2.55-9.67,3.75-14.04V27.33l-22.32,17.62c-1.07,4.87-2.79,11.95-4.29,18.1-1.57,.07-3.29,.07-5.01,.07s-3.36,0-4.94-.07c1.57-6.15,3.36-13.24,4.72-18.1V27.33l-22.25,17.62c-1.72,7.58-3.65,15.45-6.51,26.83-1.41,5.73-6.87,9.21-6.87,9.21v17.62H31.49c1.07-4.94,2.79-11.88,4.29-17.89,1.57-.07,3.5-.09,5.22-.09v17.97h22.33c1.34-6.1,2.78-12.12,4.67-19.9-.81,14.09,6.49,20.83,25.14,20.83,16.2,0,25.52-5.71,30.66-20.11-.52,13.6,6.84,20.11,25.17,20.11,10.96,0,18.76-2.62,24.25-8.76v7.83h22.54c1.29-5.87,2.86-12.59,4.65-19.89h1c1.65,4.44,2.79,12.09,3.58,17.24,.07,2,1,2.65,3.58,2.65h20.11v-3.52c3.41,2.96,9.97,4.53,20.69,4.53,17.89,0,23.61-4.72,26.4-15.88,.96-3.87,.89-17.33,.84-21.67,1.39,.08,2.66,.17,3.67,.27,.36-1.29,.71-2.5,1-3.58,.54-2.17,.36-23.65,.36-23.65Zm-19.75,30.37c-8.23-1.65-8.8-3.29-8.08-6.08,.5-1.93,1.93-2.86,5.15-2.86,4.15,0,4.87,1.5,4.22,4.01-.14,.36-.21,.86-.43,1.43,1.43-.14,3.65-.14,6.08-.14,1.91,0,4.05,.05,6.06,.14-2.58,1.77-7.76,4.63-13,3.51Z" fill="#0ba65b" stroke="#231f20" stroke-linecap="round" stroke-linejoin="round"/><path d="M281.79,19.89s-7.72-1.28-22.66-1.28c-8.42,0-14.57,8.95-18.78,11.49,.53-.9,1.05-1.79,1.57-2.67V9.81l-23.9,17.62c-1.86,3.51-4.58,8.51-9.09,15.74-1.65,2.43-1.72-8.94,.21-15.74V9.81l-22.54,17.62c-1.08,4.83-2.22,9.71-3.63,15.51-.66-11.67-8.93-22.01-25.15-22.01s-25.44,10.14-30.64,24.36c.34-13.38-7.86-24.7-25.13-24.7-14.16,0-23.56,9.65-29.08,20.89,1.35-5.19,2.55-9.67,3.75-14.04V9.81l-22.32,17.62c-1.07,4.87-2.79,11.95-4.29,18.1-1.57,.07-3.29,.07-5.01,.07s-3.36,0-4.94-.07c1.57-6.15,3.36-13.24,4.72-18.1V9.81L22.62,27.43c-1.72,7.58-3.65,15.45-6.51,26.83-1.41,5.73-6.87,9.21-6.87,9.21v17.62H31.49c1.07-4.94,2.79-11.88,4.29-17.89,1.57-.07,3.47-.05,5.18-.05l.04,17.94h22.32c1.34-6.1,2.78-12.12,4.67-19.9-.81,14.09,6.49,20.83,25.14,20.83,16.2,0,25.52-5.71,30.66-20.11-.52,13.6,6.84,20.11,25.17,20.11,10.96,0,18.76-2.62,24.25-8.76v7.83h22.54c1.29-5.87,2.86-12.59,4.65-19.89h1c1.65,4.44,2.79,12.09,3.58,17.24,.07,2,1,2.65,3.58,2.65h20.11v-3.52c3.41,2.96,9.97,4.53,20.69,4.53,17.89,0,23.61-4.72,26.4-15.88,.96-3.87,.89-17.33,.84-21.67,1.39,.08,2.66,.17,3.67,.27,.36-1.29,.71-2.5,1-3.58,.54-2.17,.51-21.34,.51-21.34Zm-19.9,28.07c-8.23-1.65-8.8-3.29-8.08-6.08,.5-1.93,1.93-2.86,5.15-2.86,4.15,0,4.87,1.5,4.22,4.01-.14,.36-.21,.86-.43,1.43,1.43-.14,3.65-.14,6.08-.14,1.91,0,4.05,.05,6.06,.14-2.58,1.77-7.76,4.63-13,3.51Z" fill="#f97428" stroke="#231f20" stroke-linejoin="round"/><path d="M258.95,8.81c-8.42,0-14.39,1.13-18.61,3.67,.53-.9,1.05-1.79,1.57-2.67h-23.9c-1.86,3.51-4.58,8.51-9.09,15.74-1.65,2.43-3.65,5.22-5.58,8.01h-.43c2.15-8.59,4.29-16.96,6.23-23.75h-22.54c-1.08,4.83-2.22,9.71-3.63,15.51-.66-11.67-8.83-16.44-25.06-16.44s-25.54,4.57-30.74,18.79c.34-13.38-7.82-18.79-25.1-18.79-14.16,0-23.6,3.74-29.12,14.97,1.35-5.19,2.55-9.67,3.75-14.04h-22.32c-1.07,4.87-2.79,11.95-4.29,18.1-1.57,.07-3.29,.07-5.01,.07s-3.36,0-4.94-.07c1.57-6.15,3.36-13.24,4.72-18.1H22.62c-1.72,7.58-3.65,15.45-6.51,26.83-2.79,11.38-4.72,19.1-6.87,26.83H31.49c1.07-4.94,2.79-11.88,4.29-17.89,1.57-.07,3.22-.07,4.94-.07s3.43,0,4.94,.07c-1.5,6.01-3.29,12.95-4.65,17.89h22.32c1.34-6.1,2.78-12.12,4.67-19.9-.81,14.09,6.49,20.83,25.14,20.83,16.2,0,25.52-5.71,30.66-20.11-.52,13.6,6.84,20.11,25.17,20.11,13.39,0,22.07-3.9,27.59-13.38-1.16,4.46-2.23,8.43-3.33,12.45h22.54c1.29-5.87,2.86-12.59,4.65-19.89h1c1.65,4.44,2.79,12.09,3.58,17.24,.07,2,1,2.65,3.58,2.65h20.11c-.21-1.02-.56-2.51-1-4.51,3.04,3.6,9.83,5.52,21.68,5.52,17.89,0,23.61-4.72,26.4-15.88,2.65-10.66-.79-15.45-13.88-18.25-8.23-1.65-8.8-3.29-8.08-6.08,.5-1.93,1.93-2.86,5.15-2.86,4.15,0,4.87,1.5,4.22,4.01-.14,.36-.21,.86-.43,1.43,1.43-.14,3.65-.14,6.08-.14,3.86,0,8.66,.21,11.45,.5,.36-1.29,.71-2.5,1-3.58,2.29-9.23-2.79-14.81-22.32-14.81ZM103.3,36.07c-2.22,8.94-4.72,11.66-8.51,11.66-4.29,0-5.51-2.93-3.15-12.66,2.15-8.59,4.72-11.09,8.51-11.09,4.29,0,5.44,3.15,3.15,12.09Zm55.83,0c-2.22,8.94-4.72,11.66-8.51,11.66-4.29,0-5.51-2.93-3.15-12.66,2.15-8.59,4.72-11.09,8.51-11.09,4.29,0,5.44,3.15,3.15,12.09Zm95.02,12.74c-.57,2.29-1.86,3-5.15,3-4.15,0-5.01-1.57-4.29-4.51,.14-.43,.29-.93,.43-1.43-1.36,.07-3.36,.14-5.51,.14-4.44,0-9.09-.36-12.31-.57-.43,1.36-.79,2.72-1.07,3.86-.1,.41-.19,.81-.26,1.21-.18-.97-.35-1.99-.54-3.07-.36-4.51-1.5-8.01-6.15-9.66,4.55-1.92,8.74-6.48,12.66-11.98-1.94,8.68,.81,14.29,14.68,16.77,7.37,1.29,8.3,3.08,7.51,6.22Z" fill="#f0f4da" stroke="#231f20" stroke-linecap="round" stroke-linejoin="round"/><line x1="31.49" y1="63.47" x2="31.49" y2="133.19" fill="#f97428" stroke="#231f20" stroke-linejoin="round"/><line x1="63.33" y1="63.47" x2="63.33" y2="81.09" fill="#f97428" stroke="#231f20" stroke-linejoin="round"/><line x1="68" y1="113.29" x2="68" y2="43.57" fill="#f97428" stroke="#231f20" stroke-linejoin="round"/><line x1="123.8" y1="114.01" x2="123.8" y2="44.29" fill="#f97428" stroke="#231f20" stroke-linejoin="round"/><line x1="173.23" y1="63.47" x2="173.23" y2="127.78" fill="#f97428" stroke="#231f20" stroke-linejoin="round"/><line x1="195.77" y1="63.47" x2="195.77" y2="81.09" fill="#f97428" stroke="#231f20" stroke-linejoin="round"/><line x1="205.14" y1="61.82" x2="205.14" y2="131.54" fill="#f97428" stroke="#231f20" stroke-linejoin="round"/><line x1="228.68" y1="63.47" x2="228.68" y2="129.66" fill="#f97428" stroke="#231f20" stroke-linejoin="round"/></g></svg>