<?xml version="1.0" encoding="UTF-8"?><svg id="b" xmlns="http://www.w3.org/2000/svg" viewBox="0 0 172.19 234.22"><path d="M168.78,204.16l-49.77-80.91v-39.05c4.79-2.04,8.15-6.79,8.15-12.31v-4.65c0-6.58-4.77-12.06-11.04-13.16-1.09-3.55-3.29-6.62-6.2-8.8,8.96-2.04,15.67-10.06,15.67-19.63,0-11.11-9.04-20.15-20.15-20.15s-19.31,8.25-20.07,18.66c-1.92-.64-3.97-1-6.1-1-10.66,0-19.34,8.67-19.34,19.34,0,4.26,1.4,8.18,3.74,11.38h-.28c-7.37,0-13.37,6-13.37,13.37v4.65c0,5.52,3.36,10.27,8.15,12.31v39.05L8.41,204.16c-3.73,6.07-3.89,13.41-.41,19.63,3.48,6.22,9.81,9.94,16.94,9.94h41.24s86.07,0,86.07,0c7.13,0,13.46-3.71,16.94-9.94,3.48-6.22,3.32-13.56-.41-19.63Z" fill="#231f20" stroke="#231f20" stroke-linejoin="round"/><path d="M163.78,199.16l-49.77-80.91v-39.05c4.79-2.04,8.15-6.79,8.15-12.31v-4.65c0-6.58-4.77-12.06-11.04-13.16-1.09-3.55-3.29-6.62-6.2-8.8,8.96-2.04,15.67-10.06,15.67-19.63,0-11.11-9.04-20.15-20.15-20.15s-19.31,8.25-20.07,18.66c-1.92-.64-3.97-1-6.1-1-10.66,0-19.34,8.67-19.34,19.34,0,4.26,1.4,8.18,3.74,11.38h-.28c-7.37,0-13.37,6-13.37,13.37v4.65c0,5.52,3.36,10.27,8.15,12.31v39.05L3.41,199.16c-3.73,6.07-3.89,13.41-.41,19.63,3.48,6.22,9.81,9.94,16.94,9.94H61.18s86.07,0,86.07,0c7.13,0,13.46-3.71,16.94-9.94,3.48-6.22,3.32-13.56-.41-19.63Z" fill="#f0f4da" stroke="#231f20" stroke-linecap="round" stroke-linejoin="round"/><g><g><circle cx="94.56" cy="54.14" r="9.32" fill="#0ba65b" stroke="#231f20" stroke-linecap="round" stroke-linejoin="round"/><ellipse cx="98.67" cy="49.62" rx="1.35" ry="2.76" transform="translate(-6.18 84.3) rotate(-45)" fill="#f0f4da"/></g><circle cx="74.28" cy="37.5" r="11.34" fill="#12b2e2" stroke="#231f20" stroke-linejoin="round"/><circle cx="100.45" cy="20.65" r="12.15" fill="#0ba65b" stroke="#231f20" stroke-linecap="round" stroke-linejoin="round"/><path d="M156.96,203.35l-50.95-82.83V57.84H61.18v62.67L10.23,203.35c-4.67,7.6,.79,17.38,9.71,17.38H61.18s44.83,0,44.83,0h0s41.24,0,41.24,0c8.92,0,14.39-9.78,9.71-17.38Z" fill="#f0f4da" stroke="#231f20" stroke-linecap="round" stroke-linejoin="round"/><rect x="53.03" y="56.87" width="61.13" height="15.38" rx="5.37" ry="5.37" fill="#f0f4da" stroke="#231f20" stroke-linecap="round" stroke-linejoin="round"/><ellipse cx="78.4" cy="32.32" rx="2.34" ry="4.78" transform="translate(.11 64.9) rotate(-45)" fill="#f0f4da"/><circle cx="78.4" cy="94.27" r="9.32" fill="#0ba65b" stroke="#231f20" stroke-linecap="round" stroke-linejoin="round"/><ellipse cx="82.51" cy="89.74" rx="1.35" ry="2.76" transform="translate(-39.29 84.63) rotate(-45)" fill="#f0f4da"/><ellipse cx="104.77" cy="15.69" rx="3.08" ry="6.29" transform="translate(19.59 78.68) rotate(-45)" fill="#f0f4da"/><path d="M152.12,205.03l-36.12-58.48c-1.26-2.04-3.49-3.29-5.9-3.29H57.61c-2.4,0-4.63,1.24-5.9,3.29L15.59,205.03c-2.85,4.62,.47,10.57,5.9,10.57h124.74c5.43,0,8.75-5.95,5.9-10.57Z" fill="#0ba65b" stroke="#231f20" stroke-linecap="round" stroke-linejoin="round"/><path d="M84.06,59.05c1.46,3.25,4.71,5.52,8.5,5.52s7.05-2.27,8.5-5.52h-17Z" fill="#0ba65b" stroke="#231f20" stroke-linecap="round" stroke-linejoin="round"/><circle cx="92.42" cy="129.65" r="7.86" fill="#12b2e2" stroke="#231f20" stroke-linejoin="round"/><ellipse cx="95.79" cy="126.35" rx="1.14" ry="2.33" transform="translate(-61.29 104.74) rotate(-45)" fill="#f0f4da"/><g><ellipse cx="84.56" cy="181.4" rx="19.83" ry="7.54" fill="none" stroke="#f0f4da" stroke-linecap="round" stroke-linejoin="round"/><ellipse cx="84.56" cy="181.4" rx="7.54" ry="19.83" transform="translate(-79.37 66.58) rotate(-30)" fill="none" stroke="#f0f4da" stroke-linecap="round" stroke-linejoin="round"/><ellipse cx="84.56" cy="181.4" rx="19.83" ry="7.54" transform="translate(-114.82 163.93) rotate(-60)" fill="none" stroke="#f0f4da" stroke-linecap="round" stroke-linejoin="round"/><circle cx="84.56" cy="181.4" r="2.8" fill="#f0f4da"/></g></g></svg>