<?xml version="1.0" encoding="UTF-8"?><svg id="c" xmlns="http://www.w3.org/2000/svg" viewBox="0 0 310 226"><path d="M300.38,6l-7.49.3L13.74,17.59l-7.49.3.3,7.49,7.77,192.11.3,7.49,7.49-.3,279.14-11.28,7.49-.3-.3-7.49-7.77-192.11-.3-7.49h0Z" fill="#231f20" stroke="#231f20" stroke-linejoin="round"/><path d="M295.38,1l-7.49.3L8.74,12.59l-7.49.3.3,7.49,7.77,192.11.3,7.49,7.49-.3,279.14-11.28,7.49-.3-.3-7.49-7.77-192.11-.3-7.49h0Z" fill="#f9f4da" stroke="#231f20" stroke-linejoin="round"/><rect x="16.9" y="18.54" width="271.54" height="185.59" transform="translate(-4.37 6.26) rotate(-2.31)" fill="#ea203d"/><polyline points="15.73 85.09 260.62 172.47 19.37 175.03 15.73 85.09" fill="#f97428"/><polygon points="223.88 15.59 260.62 172.47 284.58 13.13 223.88 15.59" fill="#f97428"/><polygon points="80.34 21.39 260.62 172.47 163.18 18.07 80.34 21.39" fill="#f97428"/><polyline points="120.63 205.5 260.62 172.47 231 201.04 168.84 203.56" fill="#f97428"/><polygon points="258.71 172.55 269.59 199.48 254.22 200.1 258.71 172.55 291.19 194.92 290.32 173.42 258.71 172.55" fill="#f97428"/><polygon points="260.62 172.47 262.41 169.63 259.78 171.14 260.62 172.47" fill="#f97428"/><polygon points="289.96 116.96 262.41 169.63 291.41 152.99 289.96 116.96" fill="#f97428"/><path d="M281.48,16.08l7.2,178.13-265.15,10.72L16.32,26.8l265.15-10.72M288.19,8.8L9.05,20.09l7.77,192.11,279.14-11.28-7.77-192.11h0Z" fill="#f9b728"/><rect x="12.84" y="14.88" width="279.37" height="192.27" transform="translate(-4.36 6.25) rotate(-2.31)" fill="none" stroke="#231f20" stroke-linecap="round" stroke-linejoin="round"/><line x1="113.52" y1="132.4" x2="122.06" y2="138.15" fill="#231f20" stroke="#231f20" stroke-linecap="round" stroke-linejoin="round" stroke-width="1.2"/><polyline points="113.52 132.4 122.06 138.15 131.14 135.51 122.59 129.76 113.52 132.4" fill="#231f20" stroke="#231f20" stroke-linecap="round" stroke-linejoin="round" stroke-width="1.2"/><path d="M48.34,182.47c-.12,0-.24-.04-.33-.1l-8.55-5.75c-.24-.16-.33-.47-.21-.74l7.2-16.44c.1-.22.31-.36.55-.36h42.59c.33,0,.59.26.6.58l.46,16.83c0,.29-.19.55-.48.6-6.05,1.24-18.25,3.18-18.38,3.2-.03,0-.06,0-.09,0-.12,0-.24-.04-.33-.1l-6.26-4.22c.21.27.42.53.6.76,1.35,1.68,2.18,2.75,2.21,3.52.01.31-.22.58-.53.62-5.2.64-10.35,1.12-15.31,1.4-1.24.07-3.72.18-3.72.18h-.03Z" fill="#f9b728"/><path d="M89.59,159.68c.16,5.61.31,11.22.46,16.83-6.11,1.25-18.35,3.2-18.35,3.2l-8.55-5.75c.05,1.21,4.12,5.12,4.17,6.33-5.08.63-10.17,1.11-15.27,1.4-1.24.07-3.71.18-3.71.18l-8.55-5.75,7.2-16.44h42.59M89.59,158.48h-42.59c-.48,0-.91.28-1.1.72l-7.2,16.44c-.23.53-.05,1.15.43,1.48l8.55,5.75c.2.13.43.2.67.2.02,0,.04,0,.05,0,0,0,2.48-.11,3.72-.18,4.97-.29,10.14-.76,15.35-1.41.62-.08,1.08-.62,1.05-1.24-.02-.5-.26-1.03-.69-1.69l3.2,2.16c.2.13.43.2.67.2.06,0,.13,0,.19-.01.12-.02,12.34-1.96,18.4-3.21.57-.12.97-.63.96-1.21l-.46-16.79c-.02-.65-.55-1.2-1.2-1.2h0Z" fill="#231f20"/><polygon points="58.78 174.54 67.32 180.29 65.8 176.58 62.38 174.4 65.74 141.11 50.13 136.84 58.78 174.54" fill="#231f20" stroke="#231f20" stroke-linecap="round" stroke-linejoin="round" stroke-width="1.2"/><path d="M88.49,128.92c-.3-7.4-.6-14.79-.9-22.19-.12-2.93-1.55-5.28-3.7-6.64-1.71-1.08-8.36-5.57-8.36-5.57,0,0-25.82,16.47-27.61,16.66-4.53.46,33.57,59.57,33.57,59.57l8.55,5.75s-.52-18.97-.79-28.46c-.08-1.96-.61-15.05-.77-19.12Z" fill="#231f20" stroke="#231f20" stroke-linecap="round" stroke-linejoin="round" stroke-width="1.2"/><path d="M95.56,175.97c-.13,0-.25-.04-.36-.12-.04-.03-.08-.07-.12-.12l-8.4-5.62c-.23-.16-.33-.45-.23-.71l33.59-89.02c.06-.17.2-.3.38-.36.06-.02.12-.03.18-.03.12,0,.23.03.33.1l8.55,5.75c.16.11.26.28.26.47l.77,19.01c.01.27-.17.52-.43.6-2.88.86-5.75,1.69-8.63,2.51l.07,1.76c.09-.05.19-.07.29-.07.12,0,.23.03.33.1l8.55,5.75c.16.11.26.28.26.47l.77,19.01c.01.27-.17.52-.43.6-2.87.85-5.75,1.69-8.63,2.51,0,0,.07,1.76.07,1.76.09-.05.19-.07.29-.07.12,0,.23.03.33.1l8.55,5.75c.16.11.26.28.26.47l.77,19.01c.01.27-.17.52-.43.6-14.18,4.21-25.88,7.3-36.83,9.73-.04,0-.09.01-.13.01Z" fill="#f9b728"/><path d="M120.6,80.6l8.55,5.75s.51,12.68.77,19.01c-3.02.9-6.05,1.78-9.08,2.64.15,3.71.3,7.42.45,11.13,1.57-.44.53-8.39.53-8.39l8.55,5.75s.51,12.68.77,19.01c-3.02.9-6.05,1.78-9.08,2.64.15,3.71.3,7.42.45,11.13.7-.2.53-8.39.53-8.39l8.55,5.75s.51,12.68.77,19.01c-12.25,3.64-24.51,7-36.79,9.72,0-.01,0-.04,0-.04l-8.54-5.71,33.59-89.02M120.6,79.4c-.12,0-.25.02-.36.06-.35.11-.63.38-.76.72l-33.59,89.02c-.2.52,0,1.11.46,1.42l8.34,5.57s.1.09.15.14c.21.16.47.25.73.25.09,0,.17,0,.26-.03,10.98-2.43,22.69-5.52,36.87-9.74.53-.16.88-.65.86-1.2l-.77-19.01c-.02-.38-.21-.73-.53-.95l-8.55-5.75c-.12-.08-.25-.14-.38-.17l-.03-.68c2.63-.75,5.32-1.54,8.18-2.39.53-.16.88-.65.86-1.2l-.77-19.01c-.02-.38-.21-.73-.53-.95l-8.55-5.75c-.12-.08-.25-.14-.38-.17l-.03-.68c2.63-.75,5.32-1.53,8.18-2.39.53-.16.88-.65.86-1.2l-.77-19.01c-.02-.38-.21-.73-.53-.95l-8.55-5.75c-.2-.13-.43-.2-.67-.2h0Z" fill="#231f20"/><path d="M132.36,166.25c-.12,0-.23-.03-.33-.1l-8.55-5.75c-.06-.04-.11-.09-.15-.14-3.14-4.22-30.65-41.36-30.8-45.15l-.77-19.01c-.01-.29.19-.55.47-.61,10.53-2.33,27.84-15.23,28.02-15.36.11-.08.23-.12.36-.12.12,0,.23.03.33.1l8.55,5.75c.16.11.26.28.26.47l.77,19.01c0,.23-.11.44-.31.55-.09.05-.19.08-.29.08-.12,0-.23-.03-.33-.1l-8.31-5.59-7.58,2.2,7.48,5.04c.16.11.26.28.26.47l.09,2.23c.09-.05.19-.07.29-.07.12,0,.23.03.33.1l8.55,5.75c.16.11.26.28.26.47l.77,19.01c0,.23-.11.44-.31.55-.09.05-.19.08-.29.08-.12,0-.23-.03-.33-.1l-8.31-5.6-7.58,2.2,7.48,5.04c.16.11.26.28.26.47,0,0,.09,2.24.09,2.24.09-.05.19-.07.29-.07.12,0,.23.03.33.1l8.55,5.75c.16.11.26.28.26.47l.77,19.01c0,.23-.11.44-.31.55-.09.05-.19.08-.29.08Z" fill="#231f20"/><path d="M120.6,80.6l8.55,5.75.77,19.01-8.55-5.75-9.08,2.64,8.55,5.75s.3,7.42.45,11.13c1.57-.44.53-8.39.53-8.39l8.55,5.75.77,19.01-8.55-5.75-9.08,2.64,8.55,5.75c.15,3.71.3,7.42.45,11.13.7-.2.53-8.39.53-8.39l8.55,5.75.77,19.01-8.55-5.75s-30.53-41.11-30.68-44.82c-.26-6.34-.51-12.68-.77-19.01h0c10.78-2.39,28.24-15.47,28.24-15.47M120.6,79.4c-.25,0-.51.08-.72.24-.17.13-17.38,12.96-27.78,15.26-.57.13-.96.64-.94,1.22l.77,19.01c.15,3.79,23.7,35.77,30.92,45.48.08.11.18.2.29.28l8.55,5.75c.2.14.44.2.67.2.2,0,.4-.05.59-.15.39-.22.63-.64.61-1.1l-.77-19.01c-.02-.38-.21-.73-.53-.95l-8.55-5.75c-.12-.08-.25-.14-.38-.17l-.07-1.62c-.02-.38-.21-.73-.53-.95l-6.42-4.32,6.07-1.77,8.08,5.44c.2.14.44.2.67.2.2,0,.4-.05.59-.15.39-.22.63-.64.61-1.1l-.77-19.01c-.02-.38-.21-.73-.53-.95l-8.55-5.75c-.12-.08-.25-.14-.38-.17l-.07-1.62c-.02-.38-.21-.73-.53-.95l-6.42-4.32,6.07-1.77,8.08,5.44c.2.14.44.2.67.2.2,0,.4-.05.59-.15.39-.22.63-.64.61-1.1l-.77-19.01c-.02-.38-.21-.73-.53-.95l-8.55-5.75c-.2-.14-.44-.2-.67-.2h0Z" fill="#231f20"/><path d="M122.06,138.75c-.26,0-.5-.17-.58-.43-.09-.32.09-.65.41-.74l9.07-2.64c.06-.02.11-.02.17-.02.26,0,.5.17.58.43.09.32-.09.65-.41.74,0,0-6.05,1.78-9.08,2.64-.05.02-.11.02-.16.02Z" fill="#231f20"/><path d="M131.14,135.51h0M131.14,135.51s-6.05,1.78-9.08,2.64l9.08-2.64M131.14,134.31c-.06,0-.11,0-.17.01-.07,0-.13.02-.19.04l-9.05,2.63c-.63.18-1,.85-.82,1.48.15.53.63.87,1.15.87.11,0,.22-.01.33-.05,2.89-.82,8.61-2.5,9.06-2.64.51-.14.89-.6.89-1.16,0-.64-.5-1.16-1.13-1.2-.02,0-.05,0-.07,0h0ZM131.14,136.71h0,0Z" fill="#231f20"/><path d="M191.92,147.46c-1.58,0-3.07-.42-4.31-1.21-1.86-1.19-8.97-6.08-9.27-6.29-.17-.12-.27-.31-.26-.51,0-.2.12-.39.29-.5l48.65-29.06c.09-.06.2-.08.31-.08.1,0,.2.02.29.07.19.1.31.29.31.5l.72,17.74c.22,5.47-4.07,11.02-9.56,12.36-7.47,1.82-15.44,3.96-24.35,6.56-.95.28-1.9.42-2.82.42h0Z" fill="#f9b728"/><path d="M227.33,110.4l.72,17.74c.21,5.26-3.89,10.48-9.1,11.75-8.13,1.98-16.26,4.2-24.38,6.57-.91.27-1.81.39-2.65.39-1.49,0-2.86-.4-3.98-1.12-1.88-1.2-9.25-6.27-9.25-6.27l48.65-29.06M227.33,109.2c-.21,0-.43.06-.62.17l-48.65,29.06c-.35.21-.57.58-.58.99-.01.41.18.8.52,1.03.3.21,7.41,5.1,9.29,6.3,1.33.86,2.94,1.31,4.63,1.31.98,0,1.98-.15,2.99-.44,8.91-2.6,16.86-4.74,24.32-6.56,5.85-1.43,10.25-7.12,10.02-12.97l-.72-17.74c-.02-.42-.26-.81-.63-1.01-.18-.1-.37-.14-.57-.14h0Z" fill="#231f20"/><path d="M239.04,136.12c-.12,0-.24-.04-.33-.1l-8.55-5.75c-.23-.16-.33-.45-.22-.71l32.12-83.38c.07-.17.21-.3.38-.36.06-.02.12-.03.18-.03.12,0,.23.03.33.1l8.55,5.75c.16.11.26.28.26.47l.77,19.01c0,.16-.05.31-.16.43-.11.12-.26.19-.42.19-2.25.09-4.56.22-6.87.39l2.41,59.67c.01.32-.23.6-.55.62-9.17.69-27.62,3.65-27.8,3.68-.03,0-.06,0-.1,0Z" fill="#f9b728"/><path d="M262.61,46.39l8.55,5.75s.51,12.68.77,19.01c-2.49.1-4.98.25-7.47.43.81,20.08,1.62,40.16,2.44,60.25-9.31.7-27.85,3.69-27.85,3.69l-8.55-5.75,32.12-83.38M262.61,45.19c-.12,0-.24.02-.36.06-.35.11-.63.37-.76.71l-32.12,83.38c-.2.52-.01,1.11.45,1.43l8.55,5.75c.2.13.43.2.67.2.06,0,.13,0,.19-.02.19-.03,18.6-2.99,27.75-3.67.64-.05,1.14-.6,1.11-1.25l-2.39-59.08c2.11-.15,4.21-.26,6.27-.35.32-.01.62-.15.83-.39.22-.23.33-.54.32-.86l-.77-19.01c-.02-.38-.21-.73-.53-.95l-8.55-5.75c-.2-.13-.43-.2-.67-.2h0Z" fill="#231f20"/><path d="M136.7,164.91c-.12,0-.23-.03-.33-.1l-8.55-5.75c-.21-.14-.31-.39-.25-.63.12-.5,11.76-50.48,13.21-75.82.01-.25.18-.46.42-.54,3.84-1.19,7.69-2.4,11.53-3.61l7.27-2.29c1.35-.43,2.32-5.43,2.57-8.85.02-.21.14-.4.34-.5.08-.04.17-.06.26-.06.12,0,.23.03.33.1l8.55,5.75c.14.09.23.24.26.41l11.09,76.82c.04.29-.14.57-.42.66-6.2,1.89-18.68,5.83-18.8,5.86-.06.02-.12.03-.18.03-.12,0-.23-.03-.33-.1l-7.16-4.82-.4,7.03c-.01.25-.18.46-.42.54-6.2,1.95-18.69,5.79-18.81,5.83-.06.02-.12.03-.18.03Z" fill="#f9b728"/><path d="M163.17,67.36l8.55,5.75s7.39,51.21,11.09,76.82c-6.27,1.92-18.81,5.87-18.81,5.87l-8.03-5.4c.02-.39.04-.78.07-1.17.61-.91,1.36-2.26.55-2.26-.11,0-.25.03-.42.08-.04.73-.08,1.45-.12,2.18-.31.47-.58.83-.58.83l.52.35c-.15,2.69-.31,5.39-.46,8.08-6.27,1.97-18.81,5.83-18.81,5.83l-8.55-5.75s11.76-50.24,13.23-75.92c3.85-1.19,7.69-2.4,11.54-3.61,2.42-.76,4.85-1.53,7.27-2.29,2.35-.74,2.99-9.38,2.99-9.38M163.17,66.16c-.18,0-.36.04-.52.12-.38.19-.64.56-.67.99-.29,3.95-1.34,7.99-2.16,8.32l-2.07.65-5.2,1.64c-3.84,1.21-7.69,2.42-11.53,3.61-.48.15-.81.58-.84,1.08-1.45,25.29-13.08,75.22-13.2,75.72-.11.49.08.99.5,1.27l8.55,5.75c.2.13.43.2.67.2.12,0,.24-.02.35-.05.13-.04,12.62-3.88,18.82-5.83.48-.15.81-.58.84-1.08l.34-5.98,6.28,4.23c.2.13.43.2.67.2.12,0,.24-.02.36-.06.13-.04,12.6-3.97,18.8-5.86.57-.17.92-.73.84-1.32l-11.09-76.82c-.05-.34-.24-.63-.52-.82l-8.55-5.75c-.2-.14-.44-.2-.67-.2h0Z" fill="#231f20"/><path d="M155.51,159.08c-.12,0-.23-.03-.33-.1l-8.55-5.75-9.47-4.89c-.21-.11-.34-.33-.32-.57.02-.39,2.5-39.77,3.95-65.16.01-.25.18-.46.42-.54,2.96-.92,15.42-10.33,21.6-15.18.11-.08.24-.13.37-.13.12,0,.23.03.33.1l8.55,5.75c.14.09.23.24.26.41l11.09,76.82c.03.24-.07.47-.27.59-.1.06-.21.09-.32.09-.12,0-.23-.03-.33-.1l-8.36-5.62c-5.24.72-14.89,2.12-17.38,2.7l-.63,11c-.01.21-.14.41-.33.5-.08.04-.18.06-.27.06Z" fill="#231f20"/><path d="M163.17,67.36l8.55,5.75,11.09,76.82-8.55-5.75s-16,2.2-18.1,2.86c-.22,3.81-.65,11.44-.65,11.44l-8.55-5.75-9.53-4.93s2.48-39.48,3.95-65.16c3.85-1.19,21.8-15.28,21.8-15.28M163.17,66.16c-.26,0-.52.09-.74.26-7.15,5.61-18.74,14.25-21.41,15.08-.48.15-.81.58-.84,1.08-1.45,25.39-3.93,64.76-3.95,65.16-.03.47.22.92.65,1.14l9.47,4.9,8.49,5.71c.2.14.44.2.67.2.18,0,.36-.04.53-.13.39-.19.64-.58.66-1.01l.6-10.55c2.79-.58,10.98-1.78,16.66-2.57l8.17,5.5c.2.14.44.2.67.2.22,0,.44-.06.64-.18.4-.25.62-.72.55-1.19l-11.09-76.82c-.05-.34-.24-.63-.52-.82l-8.55-5.75c-.2-.14-.44-.2-.67-.2h0Z" fill="#231f20"/><path d="M227.4,132.76c-.12,0-.23-.03-.33-.1l-7.54-5.07s-40.24,2.62-40.25,2.62c-.16,0-.31-.06-.42-.17-.12-.12-.19-.29-.18-.46l3.01-50.11c-.23-5.5,4.04-11.33,9.51-12.92.23-.07.46-.1.7-.1,5.04,0,10.79,15.48,10.84,16.77l1.62,40.17c2.43-2.91,9.47-12.71,13.94-19.07.12-.17.3-.25.49-.25.12,0,.23.03.33.1l8.55,5.75c.16.11.26.28.26.47l.72,17.74c.06,1.4-.17,2.83-.69,4.25-.06.17-.2.31-.38.37-.06.02-.12.03-.19.03Z" fill="#231f20"/><path d="M191.89,67.04c4.43,0,10.2,15.03,10.24,16.2l1.68,41.44s.01.05.04.05c.83,0,14.94-20.07,14.94-20.07l8.55,5.75.72,17.74c.06,1.36-.19,2.73-.65,4.02l-7.71-5.19-40.42,2.63,3.01-50.11c-.21-5.26,3.87-10.86,9.08-12.38.17-.05.35-.07.53-.07M191.89,65.84h0c-.29,0-.58.04-.86.12-5.7,1.66-10.14,7.72-9.94,13.52l-3.01,50.05c-.02.34.11.68.35.92.23.22.53.35.85.35.03,0,.05,0,.08,0l40.01-2.6,7.37,4.96c.2.13.43.2.67.2.12,0,.25-.02.37-.06.35-.11.63-.38.76-.73.54-1.49.79-2.99.73-4.47l-.72-17.74c-.02-.38-.21-.73-.53-.95l-8.55-5.75c-.21-.14-.44-.2-.67-.2-.38,0-.75.18-.98.51-4.82,6.85-10.2,14.3-12.91,17.79l-1.56-38.56c-.05-1.35-5.95-17.35-11.44-17.35h0Z" fill="#231f20"/><path d="M206.83,91.04c-.12,0-.24-.03-.33-.1l-8.55-5.75c-.25-.17-.34-.5-.2-.77l14.7-29.31c.08-.15.21-.27.38-.31.05-.01.11-.02.16-.02.11,0,.23.03.33.1.32.21,7.87,5.09,9.66,6.46,1.99,1.52,3.14,3.84,3.25,6.55l.72,17.78c.01.29-.19.55-.47.61-6.42,1.4-19.36,4.71-19.49,4.74-.05.01-.1.02-.15.02Z" fill="#f9b728"/><path d="M212.98,55.38s7.83,5.06,9.62,6.43c1.76,1.35,2.91,3.49,3.02,6.1l.72,17.78c-6.51,1.42-19.51,4.74-19.51,4.74l-8.55-5.75,14.7-29.31M212.98,54.18c-.11,0-.21.01-.32.04-.33.09-.6.32-.76.62l-14.7,29.31c-.27.54-.1,1.2.4,1.53l8.55,5.75c.2.13.43.2.67.2.1,0,.2-.01.3-.04.13-.03,13.05-3.34,19.46-4.73.57-.12.97-.64.94-1.22l-.72-17.78c-.12-2.89-1.35-5.38-3.49-7.01-1.81-1.38-9.38-6.28-9.7-6.49-.2-.13-.42-.19-.65-.19h0Z" fill="#231f20"/><path d="M226.34,86.29c-.12,0-.23-.03-.33-.1l-8.55-5.75c-.13-.09-.22-.23-.25-.38l-4.81-24.56c-.05-.24.05-.48.25-.61.1-.07.22-.1.34-.1s.23.03.33.1c.32.21,7.87,5.09,9.66,6.46,1.99,1.52,3.14,3.84,3.25,6.55l.72,17.78c0,.23-.11.44-.31.55-.09.05-.19.08-.29.08Z" fill="#231f20"/><path d="M212.98,55.38s7.83,5.06,9.62,6.43c1.76,1.35,2.91,3.49,3.02,6.1l.72,17.78-8.55-5.75-4.81-24.56M212.98,54.18c-.23,0-.47.07-.67.21-.4.27-.6.75-.51,1.22l4.81,24.56c.06.31.24.59.51.77l8.55,5.75c.2.14.44.2.67.2.2,0,.4-.05.59-.15.39-.22.63-.64.61-1.1l-.72-17.78c-.12-2.89-1.35-5.38-3.49-7.01-1.81-1.38-9.38-6.28-9.7-6.49-.2-.13-.43-.19-.65-.19h0Z" fill="#231f20"/><path d="M266.9,132.44c-.12,0-.23-.03-.33-.1l-8.55-5.75c-.13-.09-.22-.22-.25-.38l-11.35-55.09c-.03-.15,0-.31.08-.44l15.61-24.6c.09-.14.23-.23.38-.27.04,0,.08-.01.12-.01.12,0,.24.04.33.1l8.55,5.75c.16.11.26.28.26.47l.77,19.01c0,.23-.11.44-.31.55-.09.05-.19.08-.29.08-.12,0-.23-.03-.33-.1l-8.38-5.64-5.49.32,7.07,4.76c.16.11.26.28.26.47l2.44,60.25c0,.23-.11.44-.31.55-.09.05-.19.08-.29.08Z" fill="#231f20"/><path d="M262.61,46.39l8.55,5.75s.51,12.68.77,19.01l-8.55-5.75-7.47.43,8.55,5.75c.81,20.08,2.44,60.25,2.44,60.25l-8.55-5.75-11.35-55.09,15.61-24.6M262.61,45.19c-.08,0-.16,0-.25.03-.32.07-.59.26-.77.53l-15.61,24.6c-.17.26-.22.58-.16.89l11.35,55.09c.06.31.24.58.51.75l8.55,5.75c.2.14.44.2.67.2.2,0,.4-.05.59-.15.39-.22.63-.64.61-1.1l-2.44-60.25c-.02-.38-.21-.73-.53-.95l-5.59-3.76,3.51-.2,8.21,5.53c.2.14.44.2.67.2.2,0,.4-.05.59-.15.39-.22.63-.64.61-1.1l-.77-19.01c-.02-.38-.21-.73-.53-.95l-8.55-5.75c-.2-.13-.43-.2-.67-.2h0Z" fill="#231f20"/><path d="M262.61,46.39c-14.32.58-28.58,2.63-42.81,5.59.26,6.34.51,12.68.77,19.01,2.5-.52,4.99-1.01,7.49-1.47.81,20.08,1.62,40.16,2.44,60.25,9.26-1.71,18.55-2.99,27.85-3.69-.81-20.08-1.62-40.16-2.44-60.25,2.49-.19,4.98-.33,7.47-.43-.26-6.34-.51-12.68-.77-19.01Z" fill="#12b2e2" stroke="#f9f4da" stroke-linecap="round" stroke-linejoin="round" stroke-width="2"/><path d="M121.37,99.62c-.26-6.34-.51-12.68-.77-19.01-12.25,3.64-24.51,7-36.79,9.72t0,0c.26,6.34.51,12.68.77,19.01.15,3.71.3,7.42.45,11.13.26,6.34.51,12.68.77,19.01.15,3.71.3,7.42.45,11.13.26,6.32.51,12.65.77,18.97,0,.01,0,.03,0,.04,12.28-2.72,24.54-6.08,36.79-9.72-.26-6.34-.51-12.68-.77-19.01-3.02.9-6.05,1.78-9.08,2.64-.15-3.71-.3-7.42-.45-11.13,3.03-.86,6.05-1.74,9.08-2.64-.26-6.34-.51-12.68-.77-19.01-3.02.9-6.05,1.78-9.08,2.64-.15-3.71-.3-7.42-.45-11.13,3.03-.86,6.05-1.74,9.08-2.64Z" fill="#12b2e2" stroke="#f9f4da" stroke-linecap="round" stroke-linejoin="round" stroke-width="2"/><path d="M155.45,150.05c6.27-1.98,12.54-3.95,18.81-5.87-3.7-25.62-7.39-51.22-11.09-76.82-3.85,1.2-7.69,2.41-11.54,3.62-2.42.76-4.85,1.53-7.27,2.29-3.84,1.21-7.69,2.42-11.54,3.61-1.56,27.23-3.12,54.46-4.68,81.67,6.27-1.9,12.54-3.86,18.81-5.83.22-3.81.44-7.62.65-11.44,2.1-.66,4.19-1.32,6.29-1.98.52,3.58,1.03,7.16,1.55,10.74ZM148.74,121.68c.25-4.33.5-8.66.74-12.99.59,4.07,1.17,8.14,1.76,12.2-.84.26-1.67.53-2.51.79Z" fill="#12b2e2" stroke="#f9f4da" stroke-linecap="round" stroke-linejoin="round" stroke-width="2"/><path d="M79.95,123.17c-.3-7.4-.6-14.79-.9-22.19-.21-5.26-4.66-8.66-9.89-7.75-4.52.79-9.05,1.48-13.59,2.04-1.79.22-3.57.42-5.36.61-4.53.46-9.07.79-13.62.98,1.07,26.42,2.14,52.84,3.2,79.26,1.24-.05,2.47-.11,3.71-.18,5.1-.3,10.19-.77,15.27-1.4h0c-.39-9.57-.77-19.14-1.16-28.71,2.42-.3,4.46,1.39,4.56,3.81.33,8.1.66,16.21.98,24.31,6.12-.87,12.24-1.95,18.35-3.2-.26-9.49-.52-18.97-.79-28.46-.21-5.26-4.66-8.66-9.89-7.75,5.23-.91,9.33-6.12,9.12-11.38ZM56.48,117.81l-.03-.8c-.1-2.47-.2-4.94-.3-7.41,2.42-.3,4.46,1.39,4.56,3.81l.12,3.02.03.8c.05,1.33.11,2.66.16,3.99.1,2.43-1.78,4.68-4.2,4.98-.11-2.79-.23-5.59-.34-8.38Z" fill="#12b2e2" stroke="#f9f4da" stroke-linecap="round" stroke-linejoin="round" stroke-width="2"/><path d="M199.28,109.39c.11,2.78.22,5.56.34,8.34.05,1.21-.89,2.46-2.09,2.78-1.2.32-2.22-.4-2.27-1.6-.56-13.81-1.12-27.62-1.68-41.44-.05-1.21.89-2.47,2.09-2.79,1.2-.32,2.22.4,2.27,1.61.11,2.79.23,5.59.34,8.38,6.5-1.73,13-3.33,19.51-4.74-.24-5.93-.48-11.85-.72-17.78-.21-5.26-4.66-8.65-9.88-7.37-8.13,1.98-16.26,4.2-24.38,6.57-5.21,1.52-9.29,7.12-9.08,12.38.81,20.08,1.62,40.15,2.43,60.23.21,5.26,4.64,8.26,9.85,6.74,8.12-2.37,16.24-4.59,24.38-6.57,5.22-1.27,9.32-6.49,9.1-11.75-.24-5.91-.48-11.83-.72-17.74-6.51,1.42-13.01,3.02-19.51,4.74Z" fill="#12b2e2" stroke="#f9f4da" stroke-linecap="round" stroke-linejoin="round" stroke-width="2"/><path d="M262.61,46.39c.26,6.34.51,12.68.77,19.01-2.49.1-4.98.25-7.47.43.81,20.08,1.62,40.16,2.44,60.25-9.31.7-18.59,1.98-27.85,3.69-.81-20.08-1.62-40.16-2.44-60.25-2.5.46-4.99.95-7.49,1.47-.26-6.34-.51-12.68-.77-19.01,14.23-2.96,28.49-5.01,42.81-5.59M262.61,45.19s-.03,0-.05,0c-13.4.54-27.47,2.38-43.01,5.61-.57.12-.98.64-.95,1.22l.77,19.01c.01.35.18.68.46.9.21.17.47.25.74.25.08,0,.16,0,.24-.03,2.05-.43,4.1-.83,6.1-1.21l.13,3.27,2.25,55.59c.01.35.18.67.45.89.21.17.48.26.75.26.07,0,.15,0,.22-.02,9.78-1.8,18.85-3,27.73-3.67.64-.05,1.14-.6,1.11-1.25l-1.14-28.09-1.25-30.99c2.11-.15,4.21-.26,6.27-.35.32-.01.62-.15.83-.39.22-.23.33-.54.32-.86l-.77-19.01c-.01-.32-.15-.62-.39-.83-.22-.2-.51-.32-.81-.32h0Z" fill="#231f20"/><path d="M120.6,80.6c.26,6.34.51,12.68.77,19.01-3.02.9-6.05,1.78-9.08,2.64.15,3.71.3,7.42.45,11.13,3.03-.86,6.05-1.74,9.08-2.64.26,6.34.51,12.68.77,19.01-3.02.9-6.05,1.78-9.08,2.64.15,3.71.3,7.42.45,11.13,3.03-.86,6.05-1.74,9.08-2.64.26,6.34.51,12.68.77,19.01-12.25,3.64-24.51,7-36.79,9.72,0-.01,0-.03,0-.04-.26-6.32-.51-12.65-.77-18.97-.15-3.71-.3-7.42-.45-11.13-.26-6.34-.51-12.68-.77-19.01-.15-3.71-.3-7.42-.45-11.13-.26-6.34-.51-12.68-.77-19.01t0,0c12.28-2.72,24.54-6.08,36.79-9.72M120.6,79.4c-.11,0-.23.02-.34.05-14.12,4.2-25.79,7.28-36.71,9.7-.57.13-.96.64-.94,1.22l.77,19.01.45,11.13.77,19.01v.12s.45,11,.45,11v.37s.77,18.61.77,18.61c.01.35.19.71.47.92.22.17.49.27.76.27.08,0,.16,0,.24-.03,10.98-2.43,22.69-5.52,36.87-9.74.53-.16.88-.65.86-1.2l-.77-19.01c-.01-.37-.2-.71-.5-.93-.21-.15-.45-.22-.7-.22-.11,0-.23.02-.34.05-2.66.79-5.16,1.52-7.6,2.22l-.16-4.04-.19-4.62c2.63-.75,5.31-1.53,8.18-2.39.53-.16.88-.65.86-1.2l-.77-19.01c-.01-.37-.2-.71-.5-.93-.21-.15-.45-.22-.7-.22-.11,0-.23.02-.34.05-2.65.79-5.15,1.52-7.6,2.22l-.35-8.66c2.63-.75,5.32-1.53,8.18-2.39.53-.16.88-.65.86-1.2l-.38-9.4-.39-9.61c-.01-.37-.2-.71-.5-.93-.21-.15-.45-.22-.7-.22h0Z" fill="#231f20"/><path d="M163.17,67.36c3.7,25.6,7.39,51.21,11.09,76.82-6.27,1.92-12.54,3.89-18.81,5.87-.52-3.58-1.03-7.16-1.55-10.74-2.1.66-4.19,1.32-6.29,1.98-.22,3.81-.44,7.62-.65,11.44-6.27,1.97-12.54,3.93-18.81,5.83,1.56-27.21,3.12-54.44,4.68-81.67,3.85-1.19,7.69-2.4,11.54-3.61,2.42-.76,4.85-1.53,7.27-2.29,3.84-1.21,7.69-2.43,11.54-3.62M148.74,121.68c.84-.26,1.67-.53,2.51-.79-.59-4.07-1.17-8.14-1.76-12.2-.25,4.33-.5,8.66-.74,12.99M163.17,66.16c-.12,0-.24.02-.36.05-3.85,1.2-7.69,2.41-11.54,3.63l-2.15.68-5.12,1.61c-3.84,1.21-7.69,2.42-11.53,3.61-.48.15-.81.58-.84,1.08-1.56,27.23-3.12,54.46-4.68,81.67-.02.39.15.77.46,1.01.21.17.48.26.74.26.12,0,.23-.02.35-.05,6.6-1.99,13.22-4.07,18.82-5.83.48-.15.81-.58.84-1.08l.29-5.15.31-5.46,3.93-1.24.22-.07,1.35,9.34c.05.35.25.66.55.84.19.12.41.18.64.18.12,0,.24-.02.36-.06,6-1.89,12.39-3.9,18.8-5.86.57-.17.92-.73.84-1.32l-11.09-76.82c-.05-.35-.25-.66-.55-.84-.19-.12-.42-.18-.64-.18h0Z" fill="#231f20"/><path d="M70.84,93.09c4.47,0,8.02,3.21,8.21,7.9l.9,22.19c.21,5.26-3.89,10.46-9.12,11.38.57-.1,1.13-.15,1.68-.15,4.47,0,8.02,3.21,8.21,7.9.26,9.49.52,18.97.79,28.46-6.11,1.25-12.22,2.33-18.35,3.2-.33-8.1-.66-16.21-.98-24.31-.09-2.24-1.83-3.85-4-3.85-.18,0-.37.01-.55.03.39,9.57.77,19.14,1.16,28.71-5.08.63-10.17,1.11-15.27,1.4-1.24.07-2.47.13-3.71.18l-3.2-79.26c4.55-.18,9.09-.52,13.62-.98,1.79-.18,3.58-.38,5.36-.61,4.53-.56,9.06-1.25,13.59-2.04.57-.1,1.13-.15,1.68-.15M56.82,126.19c2.42-.3,4.3-2.55,4.2-4.98-.05-1.33-.11-2.66-.16-3.99-.01-.27-.02-.53-.03-.8-.04-1.01-.08-2.01-.12-3.02-.09-2.24-1.83-3.85-4-3.85-.18,0-.37.01-.55.03.1,2.47.2,4.94.3,7.41.01.27.02.53.03.8.11,2.79.23,5.59.34,8.38M70.84,91.89c-.62,0-1.26.06-1.89.17-4.6.8-9.15,1.49-13.53,2.03-1.79.22-3.58.42-5.34.6-4.59.47-9.14.79-13.55.97-.32.01-.62.15-.83.39-.22.23-.33.54-.32.86l1.6,39.63,1.6,39.63c.01.32.15.62.39.83.22.2.51.32.81.32.02,0,.03,0,.05,0,1.24-.05,2.49-.11,3.73-.18,4.97-.29,10.14-.76,15.35-1.41.62-.08,1.08-.62,1.05-1.24l-1.11-27.41c1.2.28,2.05,1.3,2.11,2.62l.09,2.21.89,22.1c.01.34.17.66.43.87.22.18.49.28.77.28.06,0,.11,0,.17-.01,5.89-.83,12.09-1.91,18.42-3.21.57-.12.97-.63.96-1.21l-.46-16.5-.33-11.96c-.17-4.1-2.61-7.32-6.16-8.53,3.35-2.38,5.55-6.42,5.38-10.61l-.9-22.19c-.21-5.24-4.17-9.05-9.41-9.05h0ZM57.96,124.56l-.27-6.8-.02-.4-.02-.4-.15-3.71-.1-2.41c1.2.28,2.05,1.3,2.11,2.62l.1,2.58.02.43.02.43v.36s.09,1.97.09,1.97l.08,2.02c.05,1.34-.73,2.63-1.87,3.3h0Z" fill="#231f20"/><path d="M209.37,54.52c4.22,0,7.52,3.13,7.7,7.64.24,5.93.48,11.85.72,17.78-6.51,1.42-13.01,3.02-19.51,4.74-.11-2.79-.23-5.59-.34-8.38-.04-1.01-.77-1.69-1.71-1.69-.18,0-.37.02-.56.08-1.2.32-2.14,1.58-2.09,2.79.56,13.81,1.12,27.62,1.68,41.44.04,1.01.76,1.68,1.7,1.68.18,0,.37-.03.57-.08,1.2-.32,2.14-1.57,2.09-2.78l-.34-8.34c6.5-1.73,13-3.33,19.51-4.74.24,5.91.48,11.83.72,17.74.21,5.26-3.89,10.48-9.1,11.75-8.13,1.98-16.26,4.2-24.38,6.57-.91.27-1.81.39-2.65.39-3.98,0-7.02-2.8-7.2-7.14-.81-20.08-1.62-40.15-2.43-60.23-.21-5.26,3.87-10.86,9.08-12.38,8.12-2.37,16.24-4.59,24.38-6.57.74-.18,1.47-.27,2.18-.27M209.37,53.32s0,0,0,0c-.81,0-1.64.1-2.46.3-7.49,1.82-15.48,3.98-24.43,6.58-5.72,1.67-10.18,7.76-9.94,13.58l2.43,60.23c.2,4.88,3.65,8.29,8.4,8.29.98,0,1.98-.15,2.99-.44,8.91-2.6,16.86-4.74,24.32-6.56,5.85-1.43,10.25-7.12,10.02-12.97l-.72-17.74c-.01-.35-.18-.68-.47-.9-.21-.16-.47-.25-.73-.25-.09,0-.17,0-.26.03-6.21,1.35-12.61,2.91-19.56,4.76-.54.14-.91.65-.89,1.21l.17,4.17.17,4.17c.03.65-.55,1.4-1.2,1.58-.09.02-.17.04-.25.04-.4,0-.49-.29-.5-.53l-.84-20.72-.84-20.72c-.03-.65.55-1.41,1.2-1.59.09-.02.17-.04.25-.04.42,0,.5.34.51.54l.17,4.24.17,4.15c.01.36.19.7.49.92.21.15.46.23.71.23.1,0,.21-.01.31-.04,6.91-1.84,13.27-3.39,19.45-4.73.57-.12.97-.64.94-1.22l-.64-15.9-.08-1.88c-.21-5.09-3.95-8.79-8.9-8.79h0Z" fill="#231f20"/><path d="M28.91,77.51c1.26-4.02,4.03-10.38,6.46-15-.74-.32-1.13-.74-1.31-1.3-.11-.42.22-.68.69-.79,1.72-.38,3.37-.93,4.86-1.51,1.06-.39,1.92-.74,2.74-.92,1.44-.34,2.24.05,2.69,1.06.14.32-.07.65-.66.78-1.56.34-3.24,1.03-4.7,1.63-.46.2-.78.33-1.24.49-.97,1.8-2.3,4.73-3.66,7.72.65-.24,1.18-.38,1.62-.51,1.72-.44,2.55-.05,2.94.88.17.38.12.7-.6.86-1.53.33-3.7,1.19-5.38,2-.81,1.86-1.41,3.29-1.98,4.85,1.27-.63,3.22-1.4,4.22-1.68,1.68-.43,2.58-.12,3,.84.17.41.09.68-.57.82-1.66.33-4.97,1.88-6.67,2.73-.74.38-1.24.49-1.67-.02-.23-.27-.47-.72-.84-1.21-.27-.36-.22-.78.06-1.73Z" fill="#231f20"/><path d="M45.94,65.85c0,.22.02.44,0,.64,1.29-1.55,2.75-2.92,3.88-3.17.91-.2,1.79.72,1.84,1.92.03.69-.5,1.82-1.42,3.8-.94,1.82-1.91,4.13-1.87,5.3.03.66.26,1.02.67.93,1.06-.23,2.61-2.63,3.65-4.99.29-.67.73-.73,1.03-.35.27.32.34,1.29-.07,2.24-.8,1.92-3.02,4.09-4.9,4.5-2.09.46-3.04-.42-3.11-2.05-.07-1.7,1.25-4.91,2.39-7.13.61-1.18,1.08-2.11.86-2.06-.28.06-1.78,1.28-3.42,3.6-1.64,2.2-2.93,5.59-4.09,8.71-.2.55-.6.83-1.12.43-.46-.35-.73-.83-.76-1.58-.02-.47.05-1.03.21-1.7.52-1.89,2.75-6.83,4.57-10.18.38-.69.85-.76,1.19-.26.3.41.45.89.47,1.39Z" fill="#231f20"/><path d="M55.92,69.26c-.75,1.82-1.58,3.84-2.23,5.6,2.2-1.85,3.63-3.94,4.71-5.89.32-.61.85-.82,1.1-.17.11.29.04,1.1-.39,2.05-1.07,2.36-3.51,4.39-6.18,6.18-1.56,4.41-3.69,10.08-6.15,11.76-.68.43-1.46.57-2.18-.22-.46-.57-1.07-1.61-1.12-2.65-.01-.35.06-.84.23-1.45.8-2.94,3.41-5.48,6.42-7.34,1.8-5.35,4.35-11.65,5.91-14.6.38-.72.79-.84,1.24-.49.33.28.5.75.53,1.38.02.6-.07,1.35-.42,2.19-.31.83-.83,2.15-1.46,3.65ZM46.45,83.08c-1.08,2.01-1.43,3.71-1.06,4.07.3.32,1.09-1.13,2.22-3.6.58-1.27,1.24-2.84,1.99-4.56-1.4,1.29-2.44,2.76-3.15,4.09ZM59.7,58.97c.2.31.28.64.29.92.02.47-.18.96-.45,1.34-.51.75-1.67.94-2.27.02-.23-.33-.34-.72-.36-1.06-.02-.5.15-.99.48-1.41.63-.9,1.8-.74,2.31.23v-.03Z" fill="#231f20"/><path d="M67.84,82.6c-.5-.56-1-1.4-1.04-2.41-.01-.38.06-.93.22-1.54.86-2.92,3.31-5.39,6.3-7.28l.42-1.2c-.79.78-1.59,1.24-2.53,1.44-1.56.34-2.3-.71-2.35-2.03-.03-.66.07-1.44.32-2.29.22-.72.5-1.57.88-2.51-.5.27-1.36.71-1.83.69-.55,2.76-2.43,6.28-4.77,7.62-.28.16-.65.33-1.12.43-1.03.22-2.21.04-3.13-.94-.63-.66-.95-1.54-.99-2.55-.06-1.38.38-3.04,1.14-4.69,1.3-2.83,3.21-4.83,5.27-5.28.91-.2,1.48.03,2.11.72.92.85,1.71,1.66,1.65,3.48,1.85-.91,2.86-2.66,3.69-3.98.36-.55.65-1.16.97-1.74.38-.62.85-.76,1.22-.33.33.37.63.88.66,1.38.03.79-.31,1.78-.98,3.1-.99,1.93-1.6,3.37-2.13,4.98-.39,1.23-.62,2.55.19,2.37.81-.18,2.14-2.34,3.57-5.29,1.95-4.02,2.72-6.12,3.42-7.42.42-.66.82-.81,1.18-.54.49.37.63.82.66,1.48.03.63-.1,1.36-.48,2.23-.83,1.96-2.34,5.37-3.5,8.64,1.86-1.58,3.82-3.79,4.76-5.42.38-.65.85-.82.99-.44.18.47.15,1.3-.35,2.24-1.17,2.19-3.59,4.05-6.11,5.68-1.55,4.53-3.47,10.03-6.15,11.67-.71.44-1.36.58-2.16-.26ZM61.52,72.07c.81-.18,2.02-1.62,3.09-4.01.44-.92.78-1.79.94-2.49-1.03-.41-1.71-1.09-2.01-2.13-.63.77-1.19,1.69-1.69,2.75-.75,1.69-1.18,3.56-1.13,4.72.04.94.33,1.26.8,1.16ZM66.36,62.28c-.02-.47-.28-.61-.49-.56-.19.04-.46.35-.44.86.02.57.21,1.35.57,1.69.28-.79.38-1.58.36-1.99ZM69.51,77.92c-.72,1.65-.89,2.99-.56,3.2.23.14.84-.92,1.66-2.65.61-1.31,1.3-3.02,1.98-4.88-1.46,1.37-2.47,2.95-3.07,4.32Z" fill="#231f20"/><path d="M88.79,61.64c.56-1.68,1.65-4.43,2.81-6.97-.97.08-1.55-.14-1.82-.46-.46-.57-.16-.95.55-1.07.72-.12,1.56-.34,2.25-.55.9-1.91,1.52-3.09,2.19-4.29.44-.8.82-.85,1.19-.32.23.33.38.84.4,1.22.02.57-.07,1.32-.41,2.28.97-.09,1.53.3,1.76.63.34.5.13.92-.62.99-.57.06-1.38.3-2.06.54-1.11,2.31-2.76,5.81-3.76,8.44-.34.93-.5,1.79-.47,2.48.04.94.38,1.54.91,1.42,1.22-.27,2.76-2.61,3.76-5.21.31-.83,1.03-1.05,1.28-.25.18.63.08,1.13-.24,1.93-.4,1.04-2.38,4.21-5.01,4.78-1.66.36-3.15-.68-3.24-2.85-.03-.69.12-1.62.52-2.75Z" fill="#231f20"/><path d="M103.1,64.74c-2.06.45-3.04-.38-3.11-2.02-.08-1.98,1.34-5.06,2.45-7.17.55-1.17.99-2.03.77-1.98-.28.06-3.17,2.69-4.72,5.76-.99,1.99-2.03,4.41-2.7,6.47-.23.62-.69.82-1.09.43-.52-.49-.99-1.15-.29-3.4,1.12-3.58,6.88-15.48,9.28-19.3.47-.74.95-.71,1.25-.15.17.31.28.7.3,1.14.03.85-.29,2.1-.99,3.58-.58,1.17-2.4,4.53-2.7,5.04.91-.9,1.99-1.52,2.58-1.64.91-.2,1.85.58,1.9,1.81.02.44-.06.9-.29,1.4-1.59,3.46-2.32,4.95-2.63,5.79-.25.75-.35,1.44-.33,1.95.03.66.2,1.04.64.94,1.09-.24,2.66-2.84,3.52-4.96.2-.52.7-.69.97-.21.17.34.42,1.02-.01,2.07-.83,2.02-2.8,4.04-4.8,4.48Z" fill="#231f20"/><path d="M112.26,57.92c-.75.16-1.51.11-2.25-.21-.16.67-.23,1.35-.21,1.92.06,1.38.66,2.24,1.6,2.03,2.38-.52,4.38-3.31,5.58-5.54.32-.58.73-.73,1-.16.11.26.17,1.17-.35,2.14-1.24,2.21-3.68,4.23-6.12,4.8-2.9.67-4.58-.91-4.68-3.43-.05-1.13.22-2.43.82-3.83,1.49-3.69,3.96-5.91,5.77-6.31.44-.1.78-.11,1.1.01.9.31,1.54.68,2,1.21.2.24.34.69.36,1.1.08,1.89-1.88,5.65-4.64,6.25ZM110.4,56.42c.26.1.48.12.7.07.75-.16,1.71-1.33,2.3-2.31.86-1.43,1.45-3.05,1.1-3.26-.48-.28-2.72,2.15-4.1,5.5Z" fill="#231f20"/><path d="M126.4,56.67c2.11-3.99,5.33-9.23,7.1-11.55.66-.81,1.04-.77,1.17-.03.12.67-.19,1.6-1.2,3.12-2.71,4.05-4.73,7.04-6.83,11.12-.21.39-.54.72-1.02.6-1.31-.32-1.87-.93-1.84-2.62.04-2.2.67-6.75,1.64-10.27.16-.61.6-.86,1.11-.56.74.47,1.12,1.15,1.16,2.1.02.5-.02,1.08-.15,1.75-.66,3.29-.92,4.62-1.13,6.35Z" fill="#231f20"/><path d="M134.9,57.77c-1.91.42-2.8-.5-2.86-2.08-.02-.6.08-1.29.29-2.16.69-2.38,2.55-6.46,3.64-8.35.44-.73.82-.88,1.24-.49.62.5.92,1.8.17,3.55-.54,1.48-1.88,4.16-2.36,5.53-.25.79-.38,1.48-.36,1.98s.16.76.5.68c1.25-.27,2.79-2.74,3.67-5.09.23-.62.64-.65.94-.14.3.47.3,1.27-.07,2.17-.86,2.19-2.96,3.98-4.81,4.38ZM138.25,40.84c.88-.19,1.76.76,1.8,1.67.03.85-.41,1.68-1.19,1.85-1,.22-1.88-.54-1.92-1.52-.04-.88.59-1.84,1.31-2Z" fill="#231f20"/><path d="M144.11,50.96c-.75.16-1.51.11-2.25-.21-.16.67-.23,1.35-.21,1.92.06,1.38.66,2.24,1.6,2.03,2.38-.52,4.38-3.31,5.58-5.54.32-.58.73-.73,1-.16.11.26.17,1.17-.36,2.14-1.24,2.21-3.68,4.23-6.11,4.8-2.91.67-4.58-.91-4.68-3.43-.05-1.13.22-2.43.82-3.83,1.49-3.69,3.96-5.91,5.77-6.31.44-.1.78-.11,1.1.01.9.31,1.54.68,2,1.21.2.24.34.69.36,1.1.08,1.89-1.88,5.65-4.64,6.25ZM142.26,49.46c.26.1.48.12.7.07.75-.16,1.71-1.33,2.3-2.31.86-1.43,1.45-3.05,1.1-3.26-.48-.28-2.72,2.15-4.1,5.5Z" fill="#231f20"/><path d="M156.51,51.75c.91-.2,2.52-2.52,4.03-5.67.37-5.73,2.87-7.71,3.44-7.83s.8.36.71,1.15c-.14,1.21-.62,2.71-2.45,6.47-1.98,4.02-4.13,6.94-6.33,7.35-1.25.24-2.07-.47-2.33-1.46-.84,1.14-2.05,2.26-3.4,2.55-1.47.32-2.17-.61-2.23-1.99-.03-.66.04-1.44.32-2.29.7-2.12,2.28-5.96,3.96-8.84.35-.58.85-.76,1.18-.39.26.29.67.93.69,1.47.03.76-.31,1.78-.98,3.11-1,1.93-1.69,3.54-2.28,5.17-.22.71-.32,1.34-.3,1.81.02.38.05.59.31.54.81-.18,1.78-2.07,3.03-4.6,1.31-2.64,1.89-4,2.44-5.2.52-1.19,1.04-2.29,1.58-3.14.39-.62.82-.75,1.18-.48.88.73.93,1.99.24,3.69-.46,1.15-1.73,3.33-2.75,6-.34.84-.5,1.54-.49,1.98.02.44.15.67.43.6Z" fill="#231f20"/><path d="M164.06,44.42c.6-.67,1.08-.62,1.2.12.97-1.71,2-3.58,2.76-5.11.08-1.16.42-1.97,1.12-2.72.48-.55,1.04-.89,1.5-1,.84-.18,1.06.47.16,2.29-.02.38-.03.93,0,1.33.09,2.24.58,4.19.59,5.91,0,.79-.12,1.71-.44,2.48,1.25-1.16,2.08-2.39,2.58-4.06.25-.79.73-.67.97-.21.17.28.3,1.14-.23,2.24-1.1,2.46-3.24,4.14-5.58,4.74-1.87.47-3.77.38-4.91-1.37-.37-.52-.59-1.24-.62-1.96-.04-.94.24-1.92.9-2.67ZM168.36,45.35c-.04-1.01-.11-2.01-.21-2.84-.7,1.36-1.52,2.91-2.41,4.46.43,1.4,1.14,2.36,1.82,2.21.66-.14.87-1.78.79-3.83Z" fill="#231f20"/><path d="M176.21,45.26c.56-.12,1.21.15,1.58.77.38.74.16,1.68-.16,2.26-.48.71-1.67.78-2.27.02-.24-.33-.41-.74-.42-1.05-.03-.82.53-1.83,1.28-1.99ZM183.4,27.24c.41-.75.91-.93,1.28-.25.17.31.34.69.36,1.16.04.88-.23,2.18-1.01,3.91-1.56,3.42-3.96,8.87-5.39,12.64-.26.63-.5.81-1.06.39-.36-.27-.63-.72-.66-1.48-.02-.44.08-1.16.36-2.05,1.08-3.6,3.9-10.38,6.11-14.32Z" fill="#231f20"/><path d="M27.81,76.74c1.26-4.02,4.03-10.38,6.46-15-.74-.32-1.13-.74-1.31-1.3-.11-.42.22-.69.69-.79,1.72-.38,3.37-.92,4.86-1.5,1.06-.39,1.92-.74,2.74-.92,1.44-.35,2.24.05,2.69,1.06.14.32-.07.65-.66.78-1.56.34-3.24,1.03-4.7,1.63-.47.2-.77.33-1.24.49-.97,1.8-2.3,4.73-3.66,7.72.65-.24,1.18-.38,1.62-.51,1.72-.44,2.55-.05,2.94.88.17.38.12.7-.6.86-1.53.33-3.71,1.19-5.38,2-.81,1.86-1.41,3.29-1.98,4.85,1.27-.63,3.22-1.4,4.22-1.68,1.69-.43,2.58-.12,3,.84.17.41.09.68-.57.82-1.66.33-4.97,1.88-6.67,2.73-.74.38-1.24.49-1.67-.02-.23-.27-.47-.72-.84-1.21-.27-.36-.22-.78.06-1.73Z" fill="#fff"/><path d="M44.84,65.08c0,.22.02.44,0,.64,1.29-1.55,2.75-2.92,3.88-3.17.91-.2,1.8.72,1.84,1.92.03.69-.49,1.82-1.42,3.8-.94,1.82-1.92,4.13-1.87,5.3.03.66.26,1.02.67.93,1.06-.23,2.61-2.63,3.65-4.99.29-.67.73-.73,1.03-.35.27.32.34,1.29-.07,2.24-.81,1.92-3.02,4.09-4.9,4.5-2.09.46-3.04-.42-3.11-2.05-.07-1.7,1.25-4.91,2.39-7.13.61-1.18,1.08-2.11.86-2.06-.28.06-1.78,1.28-3.42,3.6-1.65,2.2-2.93,5.59-4.1,8.71-.2.55-.6.83-1.12.44-.45-.35-.73-.83-.76-1.58-.02-.47.05-1.03.21-1.7.52-1.89,2.75-6.83,4.57-10.18.38-.69.85-.76,1.19-.26.3.41.45.89.47,1.39Z" fill="#fff"/><path d="M54.82,68.49c-.75,1.81-1.58,3.84-2.23,5.6,2.2-1.85,3.63-3.94,4.71-5.89.32-.61.85-.82,1.1-.17.11.29.04,1.1-.39,2.05-1.07,2.36-3.51,4.39-6.18,6.18-1.56,4.41-3.69,10.08-6.15,11.76-.68.43-1.46.57-2.19-.22-.46-.57-1.07-1.61-1.12-2.65-.01-.35.06-.84.22-1.45.8-2.94,3.41-5.48,6.42-7.34,1.8-5.35,4.35-11.65,5.91-14.6.38-.72.79-.84,1.24-.49.33.28.5.75.53,1.38.02.6-.07,1.35-.42,2.19-.31.83-.83,2.15-1.46,3.65ZM45.35,82.31c-1.08,2.02-1.43,3.71-1.07,4.08.3.32,1.09-1.13,2.22-3.6.58-1.27,1.24-2.84,1.99-4.56-1.4,1.29-2.44,2.76-3.15,4.08ZM58.6,58.2c.2.31.28.64.29.92.02.47-.18.96-.45,1.34-.5.75-1.66.94-2.27.02-.23-.33-.34-.72-.36-1.06-.02-.5.15-.99.48-1.41.62-.9,1.8-.74,2.31.23v-.03Z" fill="#fff"/><path d="M66.74,81.83c-.5-.56-1-1.4-1.04-2.41-.02-.38.06-.93.22-1.54.86-2.92,3.31-5.39,6.3-7.28l.42-1.2c-.79.78-1.59,1.24-2.53,1.44-1.56.34-2.3-.71-2.35-2.03-.03-.66.07-1.44.32-2.29.22-.71.5-1.57.88-2.51-.49.27-1.36.71-1.83.69-.55,2.76-2.43,6.28-4.77,7.62-.28.16-.65.33-1.12.43-1.03.23-2.21.04-3.13-.94-.63-.66-.95-1.54-.99-2.55-.06-1.39.38-3.04,1.13-4.69,1.31-2.83,3.21-4.83,5.28-5.28.91-.2,1.48.03,2.11.71.92.85,1.71,1.66,1.66,3.48,1.86-.91,2.86-2.66,3.69-3.98.36-.55.65-1.16.97-1.74.38-.62.85-.76,1.22-.33.33.37.64.88.66,1.38.03.79-.31,1.78-.98,3.1-.99,1.93-1.6,3.37-2.13,4.98-.39,1.23-.62,2.55.19,2.37.81-.18,2.14-2.34,3.57-5.29,1.95-4.01,2.72-6.12,3.42-7.42.41-.66.82-.81,1.18-.54.49.37.63.81.66,1.48.03.63-.1,1.36-.48,2.23-.84,1.96-2.34,5.37-3.5,8.64,1.86-1.58,3.82-3.79,4.76-5.42.38-.65.85-.82.99-.44.18.47.15,1.3-.35,2.24-1.17,2.19-3.59,4.05-6.11,5.68-1.55,4.53-3.47,10.03-6.15,11.66-.71.44-1.36.58-2.16-.26ZM60.42,71.3c.81-.18,2.02-1.62,3.09-4.01.44-.92.78-1.79.94-2.49-1.02-.41-1.71-1.09-2.01-2.13-.63.77-1.19,1.69-1.69,2.75-.75,1.69-1.18,3.56-1.13,4.72.04.94.33,1.26.8,1.16ZM65.26,61.51c-.02-.47-.28-.61-.5-.56-.19.04-.46.35-.44.86.02.57.21,1.35.57,1.69.28-.79.38-1.58.36-1.98ZM68.41,77.15c-.72,1.65-.89,2.99-.57,3.2.23.14.85-.91,1.66-2.65.61-1.31,1.3-3.02,1.98-4.88-1.46,1.37-2.47,2.95-3.07,4.32Z" fill="#fff"/><path d="M87.69,60.87c.56-1.68,1.65-4.43,2.81-6.97-.97.09-1.55-.14-1.82-.46-.46-.57-.17-.95.55-1.07.72-.13,1.56-.34,2.25-.55.9-1.91,1.51-3.09,2.19-4.29.44-.79.82-.85,1.19-.32.23.33.38.84.4,1.22.02.57-.07,1.32-.41,2.28.97-.09,1.53.3,1.76.63.33.5.13.92-.62.99-.57.06-1.37.3-2.06.54-1.1,2.31-2.76,5.81-3.76,8.44-.34.93-.5,1.79-.47,2.48.04.94.38,1.54.91,1.42,1.22-.27,2.77-2.6,3.76-5.21.31-.83,1.03-1.05,1.28-.25.18.63.08,1.13-.24,1.93-.4,1.04-2.38,4.2-5.01,4.78-1.66.36-3.15-.68-3.24-2.85-.03-.69.12-1.61.52-2.75Z" fill="#fff"/><path d="M102,63.97c-2.06.45-3.04-.38-3.11-2.02-.08-1.98,1.34-5.06,2.45-7.17.55-1.17.99-2.03.77-1.98-.28.06-3.17,2.69-4.72,5.76-.99,1.99-2.03,4.41-2.7,6.47-.23.62-.69.82-1.09.43-.52-.49-.99-1.15-.29-3.4,1.12-3.58,6.88-15.48,9.28-19.3.48-.74.95-.72,1.26-.15.17.31.28.7.3,1.14.03.85-.29,2.1-.99,3.58-.58,1.18-2.4,4.53-2.7,5.04.91-.9,1.99-1.51,2.58-1.64.91-.2,1.85.58,1.9,1.81.02.44-.06.9-.29,1.4-1.59,3.46-2.32,4.95-2.64,5.79-.25.75-.35,1.44-.33,1.95.03.66.2,1.04.64.94,1.09-.24,2.66-2.84,3.52-4.96.2-.52.7-.69.97-.21.17.34.42,1.02,0,2.07-.83,2.02-2.8,4.04-4.8,4.48Z" fill="#fff"/><path d="M111.16,57.15c-.75.16-1.51.11-2.25-.21-.16.67-.23,1.35-.21,1.92.06,1.38.66,2.24,1.6,2.03,2.38-.52,4.38-3.31,5.58-5.54.32-.58.73-.73,1-.15.11.26.17,1.17-.35,2.14-1.24,2.21-3.68,4.23-6.11,4.8-2.91.67-4.58-.91-4.68-3.42-.05-1.13.22-2.43.82-3.83,1.49-3.69,3.96-5.92,5.77-6.31.44-.1.78-.11,1.11.01.9.31,1.54.68,2,1.21.2.24.34.69.36,1.1.08,1.89-1.88,5.65-4.64,6.25ZM109.3,55.65c.26.1.48.12.7.07.75-.16,1.71-1.33,2.3-2.31.86-1.43,1.45-3.05,1.1-3.26-.49-.28-2.72,2.15-4.1,5.5Z" fill="#fff"/><path d="M125.3,55.9c2.11-3.99,5.34-9.23,7.1-11.55.66-.81,1.04-.77,1.17-.03.12.67-.19,1.6-1.2,3.12-2.71,4.05-4.73,7.04-6.83,11.12-.21.39-.54.72-1.02.6-1.31-.32-1.87-.93-1.84-2.62.04-2.2.67-6.75,1.63-10.27.17-.61.6-.86,1.11-.56.74.47,1.12,1.15,1.16,2.1.02.5-.02,1.09-.15,1.75-.66,3.29-.92,4.62-1.13,6.35Z" fill="#fff"/><path d="M133.79,57c-1.91.42-2.8-.5-2.86-2.08-.02-.6.08-1.29.29-2.16.69-2.38,2.54-6.46,3.64-8.35.44-.73.82-.88,1.24-.49.62.5.92,1.8.18,3.55-.54,1.48-1.88,4.16-2.36,5.53-.25.79-.38,1.48-.36,1.98s.16.76.5.68c1.25-.27,2.79-2.74,3.67-5.09.23-.62.64-.65.94-.14.3.47.3,1.27-.07,2.17-.86,2.19-2.96,3.98-4.81,4.38ZM137.15,40.07c.87-.19,1.76.76,1.8,1.67.03.85-.41,1.68-1.19,1.85-1,.22-1.88-.54-1.92-1.52-.04-.88.59-1.84,1.31-2Z" fill="#fff"/><path d="M143.01,50.19c-.75.16-1.51.11-2.25-.21-.16.67-.23,1.35-.21,1.92.06,1.38.66,2.24,1.6,2.03,2.38-.52,4.38-3.31,5.58-5.54.32-.58.73-.73,1-.15.11.26.17,1.17-.35,2.14-1.24,2.21-3.68,4.23-6.11,4.8-2.91.67-4.58-.91-4.68-3.42-.05-1.13.22-2.43.82-3.83,1.49-3.69,3.96-5.92,5.77-6.31.44-.1.78-.11,1.11.01.89.31,1.54.68,2,1.21.2.24.34.69.36,1.1.08,1.89-1.88,5.65-4.64,6.25ZM141.16,48.69c.26.1.48.12.7.07.75-.16,1.71-1.33,2.3-2.31.86-1.43,1.45-3.05,1.1-3.26-.49-.28-2.72,2.15-4.1,5.5Z" fill="#fff"/><path d="M155.41,50.98c.91-.2,2.52-2.52,4.03-5.67.37-5.73,2.87-7.71,3.44-7.83.56-.12.8.36.71,1.15-.14,1.21-.62,2.71-2.45,6.47-1.98,4.02-4.13,6.94-6.33,7.35-1.25.24-2.07-.47-2.33-1.46-.84,1.14-2.05,2.26-3.4,2.55-1.47.32-2.17-.61-2.22-1.99-.03-.66.04-1.44.32-2.29.7-2.12,2.28-5.96,3.96-8.84.35-.58.85-.76,1.18-.39.26.29.67.93.69,1.47.03.76-.31,1.78-.98,3.1-.99,1.93-1.69,3.54-2.28,5.17-.22.71-.32,1.34-.31,1.81.02.38.05.59.31.54.81-.18,1.78-2.07,3.03-4.6,1.31-2.64,1.89-4,2.44-5.2.52-1.19,1.04-2.29,1.58-3.14.38-.62.82-.75,1.18-.48.88.73.93,1.99.25,3.69-.46,1.15-1.73,3.33-2.75,6-.34.84-.51,1.54-.49,1.98.02.44.15.67.44.6Z" fill="#fff"/><path d="M162.96,43.65c.6-.67,1.08-.62,1.2.12.97-1.71,2-3.58,2.76-5.11.08-1.16.42-1.97,1.12-2.72.48-.55,1.04-.89,1.5-1,.84-.18,1.06.47.16,2.28-.02.38-.03.93,0,1.34.09,2.24.58,4.19.59,5.91,0,.79-.12,1.71-.44,2.48,1.25-1.16,2.08-2.39,2.58-4.06.25-.79.73-.67.97-.21.17.28.3,1.14-.23,2.24-1.1,2.46-3.24,4.14-5.58,4.74-1.87.47-3.77.38-4.91-1.37-.37-.52-.59-1.24-.62-1.96-.04-.94.24-1.92.9-2.67ZM167.26,44.58c-.04-1.01-.11-2.01-.21-2.84-.7,1.36-1.52,2.91-2.41,4.46.43,1.4,1.14,2.36,1.82,2.21.66-.14.87-1.78.79-3.83Z" fill="#fff"/><path d="M175.11,44.49c.56-.12,1.21.15,1.58.77.38.75.16,1.68-.16,2.26-.48.71-1.67.78-2.27.02-.23-.33-.41-.74-.42-1.05-.03-.82.52-1.83,1.27-1.99ZM182.29,26.47c.41-.76.91-.93,1.28-.25.17.31.34.69.36,1.16.04.88-.23,2.18-1.01,3.91-1.56,3.42-3.96,8.87-5.39,12.64-.26.63-.5.81-1.06.39-.36-.27-.63-.72-.66-1.48-.02-.44.08-1.16.36-2.05,1.08-3.6,3.9-10.38,6.11-14.32Z" fill="#fff"/><circle cx="257.43" cy="168.83" r="18.25" fill="#231f20"/><path d="M255.83,158.53s-.11-.03-.17-.05c-.04.05-.08.08-.09.13-.03.11-.05.22-.07.33-.35,2.46-1.37,4.72-3.26,6.74-1.04,1.12-2.09,2.27-2.87,3.5-1.95,3.06-.48,6.34,3.42,7.91.13.05.27.08.6.17-1.29-1.27-1.93-2.54-1.63-3.99.28-1.38,1.04-2.59,2.16-3.68.07.16.07.3.06.44-.11,1.24.26,2.35,1.49,3.28.57.43,1.08.9,1.59,1.37.52.48.65,1.03.47,1.62-.09.29-.21.56-.34.92.91-.05,1.75-.14,2.33-.61.56-.45.98-1,1.58-1.64.02.56.08,1,.03,1.42-.05.45-.21.88-.32,1.32,2.76-.29,5.31-2.88,5.53-5.63.17-2.01-1.42-5.03-2.84-5.38.07.19.14.37.21.55.45,1.12.55,2.24.18,3.38-.37,1.13-2.02,2.34-3.44,2.44.05-.11.08-.22.15-.3,1.61-1.98,1.72-4.13.95-6.35-1.03-2.98-3.14-5.52-5.72-7.87Z" fill="#f9f4da"/></svg>