<?xml version="1.0" encoding="UTF-8"?><svg id="b" xmlns="http://www.w3.org/2000/svg" viewBox="0 0 258 216"><path d="M208.14,4.9H49.82c-.42,0-.84,.03-1.26,.1l-1.03,.06-1.3,.68-24.45,11.72c-2.76,1.32-4.54,4.15-4.54,7.21v21.26l-6.78,3.54c-2.65,1.39-4.3,4.11-4.3,7.09V124.14c0,3.02,1.67,5.75,4.36,7.12l6.72,3.44v19.64c0,1.79,.59,3.48,1.63,4.85-.17,.22-.33,.46-.48,.7l-.33,.54-.15,.39c-.18,.4-.32,.8-.42,1.22-.09,.36-.16,.73-.2,1.1-.04,.3-.05,.59-.05,.89v26.59c0,2.68,1.33,5.16,3.55,6.65l24.57,16.48,1.37,.92,1.04,.17c.67,.18,1.35,.27,2.04,.27H208.14c4.41,0,8-3.59,8-8v-30.47l-.22-.74c-.04-.18-.09-.36-.15-.54-.12-.39-.26-.76-.44-1.12-.23-.48-.51-.94-.85-1.38-.12-.16-.25-.32-.38-.46,1.26-1.42,2.03-3.28,2.03-5.32v-30.03l6.67-3.36,.22,.45c1.28,2.53,3.82,4.2,6.63,4.38h.05s.05,0,.05,0h.19s.21,0,.21,0c2.65,0,5.12-1.3,6.61-3.48l18.68-27.59c2.04-3.01,1.79-7.03-.62-9.77-1.5-1.72-3.69-2.72-6-2.72h0c-1.24,0-2.48,.29-3.59,.85l-18.82,9.49-.22-.45c-1.28-2.53-3.82-4.2-6.63-4.38h-.03s-.03,0-.03,0h-.21s-.24-.01-.24-.01c-1.01,0-2,.19-2.92,.55v-4.05l6.67-3.36,.22,.45c1.28,2.53,3.82,4.2,6.64,4.38h.1s.1,.01,.1,.01h.14s.15,0,.15,0c2.65,0,5.13-1.3,6.62-3.48l18.68-27.58c2.04-3.01,1.79-7.03-.62-9.77-1.5-1.72-3.69-2.72-6-2.72-1.24,0-2.48,.29-3.59,.85l-18.82,9.49-.22-.45c-1.28-2.53-3.82-4.2-6.63-4.38h-.04s-.04,0-.04,0h-.19s-.22-.01-.22-.01c-1.02,0-2,.19-2.92,.55v-4.05l6.67-3.36,.22,.45c1.28,2.53,3.82,4.2,6.64,4.38h.07s.07,0,.07,0h.16s.18,0,.18,0c2.65,0,5.12-1.3,6.62-3.48l18.68-27.58c2.04-3.01,1.79-7.03-.62-9.77-1.5-1.72-3.69-2.72-6-2.72-1.24,0-2.48,.29-3.59,.85l-18.82,9.49-.22-.45c-1.28-2.53-3.82-4.2-6.64-4.38h-.07s-.07,0-.07,0h-.16s-.19,0-.19,0c-1.02,0-2.01,.19-2.92,.55v-7.94c0-4.41-3.59-8-8-8h0Z" fill="#231f20" stroke="#231f20" stroke-linecap="round" stroke-linejoin="round"/><path d="M203.14,.9H44.82c-.42,0-.84,.03-1.26,.1l-1.03,.06-1.3,.68L16.79,13.47c-2.76,1.32-4.54,4.15-4.54,7.21v21.26l-6.78,3.54c-2.65,1.39-4.3,4.11-4.3,7.09V120.14c0,3.02,1.67,5.75,4.36,7.12l6.72,3.44v19.64c0,1.79,.59,3.48,1.63,4.85-.17,.22-.33,.46-.48,.7l-.33,.54-.15,.39c-.18,.4-.32,.8-.42,1.22-.09,.36-.16,.73-.2,1.1-.04,.3-.05,.59-.05,.89v26.59c0,2.68,1.33,5.16,3.55,6.65l24.57,16.48,1.37,.92,1.04,.17c.67,.18,1.35,.27,2.04,.27H203.14c4.41,0,8-3.59,8-8v-30.47l-.22-.74c-.04-.18-.09-.36-.15-.54-.12-.39-.26-.76-.44-1.12-.23-.48-.51-.94-.85-1.38-.12-.16-.25-.32-.38-.46,1.26-1.42,2.03-3.28,2.03-5.32v-30.03l6.67-3.36,.22,.45c1.28,2.53,3.82,4.2,6.63,4.38h.05s.05,0,.05,0h.19s.21,0,.21,0c2.65,0,5.12-1.3,6.61-3.48l18.68-27.59c2.04-3.01,1.79-7.03-.62-9.77-1.5-1.72-3.69-2.72-6-2.72h0c-1.24,0-2.48,.29-3.59,.85l-18.82,9.49-.22-.45c-1.28-2.53-3.82-4.2-6.63-4.38h-.03s-.03,0-.03,0h-.21s-.24-.01-.24-.01c-1.01,0-2,.19-2.92,.55v-4.05l6.67-3.36,.22,.45c1.28,2.53,3.82,4.2,6.64,4.38h.1s.1,.01,.1,.01h.14s.15,0,.15,0c2.65,0,5.13-1.3,6.62-3.48l18.68-27.58c2.04-3.01,1.79-7.03-.62-9.77-1.5-1.72-3.69-2.72-6-2.72-1.24,0-2.48,.29-3.59,.85l-18.82,9.49-.22-.45c-1.28-2.53-3.82-4.2-6.63-4.38h-.04s-.04,0-.04,0h-.19s-.22-.01-.22-.01c-1.02,0-2,.19-2.92,.55v-4.05l6.67-3.36,.22,.45c1.28,2.53,3.82,4.2,6.64,4.38h.07s.07,0,.07,0h.16s.18,0,.18,0c2.65,0,5.12-1.3,6.62-3.48l18.68-27.58c2.04-3.01,1.79-7.03-.62-9.77-1.5-1.72-3.69-2.72-6-2.72-1.24,0-2.48,.29-3.59,.85l-18.82,9.49-.22-.45c-1.28-2.53-3.82-4.2-6.64-4.38h-.07s-.07,0-.07,0h-.16s-.19,0-.19,0c-1.02,0-2.01,.19-2.92,.55v-7.94c0-4.41-3.59-8-8-8h0Z" fill="#f0f4da" stroke="#231f20" stroke-linecap="round" stroke-linejoin="round"/><g><polygon points="167.54 159.61 20.24 160.03 44.82 173.69 203.14 173.69 167.54 159.61" fill="#f9b728" stroke="#231f20" stroke-linecap="round" stroke-linejoin="round"/><polygon points="74.19 168.84 63.05 162.89 63.05 149.51 74.19 152.52 74.19 168.84" fill="#f9b728" stroke="#231f20" stroke-linecap="round" stroke-linejoin="round"/><rect x="74.19" y="152.52" width="82.13" height="16.32" fill="#f0f4da" stroke="#231f20" stroke-linecap="round" stroke-linejoin="round"/><polygon points="35.08 39.06 9.17 52.58 9.17 120.14 34.1 132.89 35.08 39.06" fill="#f9b728" stroke="#231f20" stroke-linecap="round" stroke-linejoin="round"/><polygon points="44.82 163.04 20.24 150.34 20.24 20.69 44.82 8.9 44.82 163.04" fill="#f9b728" stroke="#231f20" stroke-linecap="round" stroke-linejoin="round"/><line x1="24.94" y1="28.45" x2="39.24" y2="21.6" fill="#f0f4da" stroke="#231f20" stroke-linecap="round" stroke-linejoin="round"/><line x1="24.94" y1="35.98" x2="39.24" y2="29.12" fill="#f0f4da" stroke="#231f20" stroke-linecap="round" stroke-linejoin="round"/><line x1="24.94" y1="43.5" x2="39.24" y2="36.65" fill="#f0f4da" stroke="#231f20" stroke-linecap="round" stroke-linejoin="round"/><rect x="44.82" y="8.9" width="158.31" height="154.14" fill="#f0f4da" stroke="#231f20" stroke-linecap="round" stroke-linejoin="round"/><rect x="44.82" y="173.69" width="158.31" height="29.4" fill="#f0f4da" stroke="#231f20" stroke-linecap="round" stroke-linejoin="round"/><rect x="59.69" y="23.38" width="128.58" height="125.2" rx="8.93" ry="8.93" fill="#231f20" stroke="#231f20" stroke-linecap="round" stroke-linejoin="round"/><polygon points="20.24 160.03 20.24 186.61 44.82 203.1 44.82 173.69 20.24 160.03" fill="#f9b728" stroke="#231f20" stroke-linecap="round" stroke-linejoin="round"/><circle cx="194.04" cy="153.44" r="3.62" fill="#0ba65b" stroke="#231f20" stroke-linecap="round" stroke-linejoin="round"/><rect x="129.8" y="180.6" width="62.66" height="3.34" fill="#231f20" stroke="#231f20" stroke-linecap="round" stroke-linejoin="round"/><rect x="52.34" y="180.6" width="66.05" height="7.79" fill="#f0f4da" stroke="#231f20" stroke-linecap="round" stroke-linejoin="round"/><rect x="179.19" y="190.4" width="13.26" height="6.46" fill="#f0f4da" stroke="#231f20" stroke-linecap="round" stroke-linejoin="round"/><rect x="163.15" y="190.4" width="13.26" height="6.46" fill="#f0f4da" stroke="#231f20" stroke-linecap="round" stroke-linejoin="round"/><polygon points="243.83 18.79 217.88 31.88 214.05 24.29 195.39 51.85 221.35 38.76 225.17 46.35 243.83 18.79" fill="#f9b728" stroke="#231f20" stroke-linecap="round" stroke-linejoin="round"/><polygon points="243.83 58.86 217.88 71.95 214.05 64.36 195.39 91.92 221.35 78.83 225.17 86.42 243.83 58.86" fill="#f9b728" stroke="#231f20" stroke-linecap="round" stroke-linejoin="round"/><polygon points="243.83 98.94 217.88 112.02 214.05 104.44 195.39 131.99 221.35 118.9 225.17 126.49 243.83 98.94" fill="#f9b728" stroke="#231f20" stroke-linecap="round" stroke-linejoin="round"/><g><g><path d="M71.91,32.99h9.03v3.7h-4.84v4.96h4.56v3.7h-4.56v9.4h-4.19v-21.77Z" fill="#f97428"/><path d="M86.75,32.99v16.58c0,1.27,.39,1.95,1.34,1.95,1.01,0,1.32-.77,1.32-1.95v-16.58h4.24v16.31c0,3.86-1.77,5.77-5.62,5.77s-5.49-1.84-5.49-5.8v-16.27h4.21Z" fill="#f97428"/><path d="M96.15,54.76v-21.77h4.63c.69,2.66,2.87,12.52,3.04,13.47h.1c-.23-2.9-.38-6.86-.38-9.9v-3.58h3.89v21.77h-4.68c-.45-2.07-2.83-13.34-2.97-14.03h-.11c.16,2.56,.29,6.89,.29,10.31v3.72h-3.82Z" fill="#f97428"/><path d="M120.48,47.65v1.18c0,2.75-.51,6.25-5.5,6.25-3.69,0-5.29-1.96-5.29-5.97v-10.68c0-3.79,1.89-5.78,5.38-5.78,4.6,0,5.34,3.03,5.34,5.88v1.37h-4.21v-1.86c0-1.2-.26-1.81-1.13-1.81s-1.14,.57-1.14,1.81v11.51c0,1.16,.19,1.96,1.14,1.96s1.17-.67,1.17-2.05v-1.81h4.24Z" fill="#f97428"/><path d="M124.32,36.69h-3.17v-3.7h10.54v3.7h-3.19v18.07h-4.18v-18.07Z" fill="#f97428"/><path d="M137.36,32.99v21.77h-4.18v-21.77h4.18Z" fill="#f97428"/><path d="M150.95,38.81v10.1c0,4.32-2.03,6.17-5.84,6.17s-5.47-1.9-5.47-6.13v-10.25c0-4.2,2.31-6.04,5.66-6.04s5.64,1.8,5.64,6.15Zm-7.07-.47v11.13c0,1.34,.46,2.05,1.4,2.05s1.42-.64,1.42-2.07v-11.14c0-1.36-.38-2.06-1.43-2.06-.89,0-1.39,.64-1.39,2.09Z" fill="#f97428"/><path d="M153.2,54.76v-21.77h4.63c.69,2.66,2.87,12.52,3.04,13.47h.1c-.23-2.9-.38-6.86-.38-9.9v-3.58h3.89v21.77h-4.68c-.45-2.07-2.83-13.34-2.97-14.03h-.11c.16,2.56,.29,6.89,.29,10.31v3.72h-3.82Z" fill="#f97428"/><path d="M170.46,48.05v1.51c0,1.43,.36,2.1,1.31,2.1s1.19-.99,1.19-2.01c0-2.05-.39-2.65-2.61-4.51-2.45-2.08-3.71-3.31-3.71-6.51s1.03-5.98,5.15-5.98c4.38,0,5.03,2.99,5.03,5.48v1.25h-3.95v-1.3c0-1.32-.22-1.97-1.04-1.97-.77,0-1.02,.66-1.02,1.9,0,1.31,.24,1.96,2.04,3.36,3.2,2.52,4.35,3.93,4.35,7.51s-1.16,6.22-5.49,6.22-5.34-2.5-5.34-5.73v-1.31h4.1Z" fill="#f97428"/></g><g><path d="M71.91,61.31h9.03v3.7h-4.84v4.96h4.56v3.7h-4.56v9.4h-4.19v-21.77Z" fill="#f38ba3"/><path d="M86.75,61.31v16.58c0,1.27,.39,1.95,1.34,1.95,1.01,0,1.32-.77,1.32-1.95v-16.58h4.24v16.31c0,3.86-1.77,5.77-5.62,5.77s-5.49-1.84-5.49-5.8v-16.27h4.21Z" fill="#f38ba3"/><path d="M96.15,83.08v-21.77h4.63c.69,2.66,2.87,12.52,3.04,13.47h.1c-.23-2.9-.38-6.86-.38-9.9v-3.58h3.89v21.77h-4.68c-.45-2.07-2.83-13.34-2.97-14.03h-.11c.16,2.56,.29,6.89,.29,10.31v3.72h-3.82Z" fill="#f38ba3"/><path d="M120.48,75.98v1.18c0,2.75-.51,6.25-5.5,6.25-3.69,0-5.29-1.96-5.29-5.97v-10.68c0-3.79,1.89-5.78,5.38-5.78,4.6,0,5.34,3.03,5.34,5.88v1.37h-4.21v-1.86c0-1.2-.26-1.81-1.13-1.81s-1.14,.57-1.14,1.81v11.51c0,1.16,.19,1.96,1.14,1.96s1.17-.67,1.17-2.05v-1.81h4.24Z" fill="#f38ba3"/><path d="M124.32,65.02h-3.17v-3.7h10.54v3.7h-3.19v18.07h-4.18v-18.07Z" fill="#f38ba3"/><path d="M137.36,61.31v21.77h-4.18v-21.77h4.18Z" fill="#f38ba3"/><path d="M150.95,67.14v10.1c0,4.32-2.03,6.17-5.84,6.17s-5.47-1.9-5.47-6.13v-10.25c0-4.2,2.31-6.04,5.66-6.04s5.64,1.8,5.64,6.15Zm-7.07-.47v11.13c0,1.34,.46,2.05,1.4,2.05s1.42-.64,1.42-2.07v-11.14c0-1.36-.38-2.06-1.43-2.06-.89,0-1.39,.64-1.39,2.09Z" fill="#f38ba3"/><path d="M153.2,83.08v-21.77h4.63c.69,2.66,2.87,12.52,3.04,13.47h.1c-.23-2.9-.38-6.86-.38-9.9v-3.58h3.89v21.77h-4.68c-.45-2.07-2.83-13.34-2.97-14.03h-.11c.16,2.56,.29,6.89,.29,10.31v3.72h-3.82Z" fill="#f38ba3"/><path d="M170.46,76.37v1.51c0,1.43,.36,2.1,1.31,2.1s1.19-.99,1.19-2.01c0-2.05-.39-2.65-2.61-4.51-2.45-2.08-3.71-3.31-3.71-6.51s1.03-5.98,5.15-5.98c4.38,0,5.03,2.99,5.03,5.48v1.25h-3.95v-1.3c0-1.32-.22-1.97-1.04-1.97-.77,0-1.02,.66-1.02,1.9,0,1.31,.24,1.96,2.04,3.36,3.2,2.52,4.35,3.93,4.35,7.51s-1.16,6.22-5.49,6.22-5.34-2.5-5.34-5.73v-1.31h4.1Z" fill="#f38ba3"/></g><g><path d="M71.91,89.64h9.03v3.7h-4.84v4.96h4.56v3.7h-4.56v9.4h-4.19v-21.77Z" fill="#0ba65b"/><path d="M86.75,89.64v16.58c0,1.27,.39,1.95,1.34,1.95,1.01,0,1.32-.77,1.32-1.95v-16.58h4.24v16.31c0,3.86-1.77,5.77-5.62,5.77s-5.49-1.84-5.49-5.8v-16.27h4.21Z" fill="#0ba65b"/><path d="M96.15,111.41v-21.77h4.63c.69,2.66,2.87,12.52,3.04,13.47h.1c-.23-2.9-.38-6.86-.38-9.9v-3.58h3.89v21.77h-4.68c-.45-2.07-2.83-13.34-2.97-14.03h-.11c.16,2.56,.29,6.89,.29,10.31v3.72h-3.82Z" fill="#0ba65b"/><path d="M120.48,104.3v1.18c0,2.75-.51,6.25-5.5,6.25-3.69,0-5.29-1.96-5.29-5.97v-10.68c0-3.79,1.89-5.78,5.38-5.78,4.6,0,5.34,3.03,5.34,5.88v1.37h-4.21v-1.86c0-1.2-.26-1.81-1.13-1.81s-1.14,.57-1.14,1.81v11.51c0,1.16,.19,1.96,1.14,1.96s1.17-.67,1.17-2.05v-1.81h4.24Z" fill="#0ba65b"/><path d="M124.32,93.34h-3.17v-3.7h10.54v3.7h-3.19v18.07h-4.18v-18.07Z" fill="#0ba65b"/><path d="M137.36,89.64v21.77h-4.18v-21.77h4.18Z" fill="#0ba65b"/><path d="M150.95,95.46v10.1c0,4.32-2.03,6.17-5.84,6.17s-5.47-1.9-5.47-6.13v-10.25c0-4.2,2.31-6.04,5.66-6.04s5.64,1.8,5.64,6.15Zm-7.07-.47v11.13c0,1.34,.46,2.05,1.4,2.05s1.42-.64,1.42-2.07v-11.14c0-1.36-.38-2.06-1.43-2.06-.89,0-1.39,.64-1.39,2.09Z" fill="#0ba65b"/><path d="M153.2,111.41v-21.77h4.63c.69,2.66,2.87,12.52,3.04,13.47h.1c-.23-2.9-.38-6.86-.38-9.9v-3.58h3.89v21.77h-4.68c-.45-2.07-2.83-13.34-2.97-14.03h-.11c.16,2.56,.29,6.89,.29,10.31v3.72h-3.82Z" fill="#0ba65b"/><path d="M170.46,104.7v1.51c0,1.43,.36,2.1,1.31,2.1s1.19-.99,1.19-2.01c0-2.05-.39-2.65-2.61-4.51-2.45-2.08-3.71-3.31-3.71-6.51s1.03-5.98,5.15-5.98c4.38,0,5.03,2.99,5.03,5.48v1.25h-3.95v-1.3c0-1.32-.22-1.97-1.04-1.97-.77,0-1.02,.66-1.02,1.9,0,1.31,.24,1.96,2.04,3.36,3.2,2.52,4.35,3.93,4.35,7.51s-1.16,6.22-5.49,6.22-5.34-2.5-5.34-5.73v-1.31h4.1Z" fill="#0ba65b"/></g><g><path d="M71.91,117.96h9.03v3.7h-4.84v4.96h4.56v3.7h-4.56v9.4h-4.19v-21.77Z" fill="#12b2e2"/><path d="M86.75,117.96v16.58c0,1.27,.39,1.95,1.34,1.95,1.01,0,1.32-.77,1.32-1.95v-16.58h4.24v16.31c0,3.86-1.77,5.77-5.62,5.77s-5.49-1.84-5.49-5.8v-16.27h4.21Z" fill="#12b2e2"/><path d="M96.15,139.73v-21.77h4.63c.69,2.66,2.87,12.52,3.04,13.47h.1c-.23-2.9-.38-6.86-.38-9.9v-3.58h3.89v21.77h-4.68c-.45-2.07-2.83-13.34-2.97-14.03h-.11c.16,2.56,.29,6.89,.29,10.31v3.72h-3.82Z" fill="#12b2e2"/><path d="M120.48,132.63v1.18c0,2.75-.51,6.25-5.5,6.25-3.69,0-5.29-1.96-5.29-5.97v-10.68c0-3.79,1.89-5.78,5.38-5.78,4.6,0,5.34,3.03,5.34,5.88v1.37h-4.21v-1.86c0-1.2-.26-1.81-1.13-1.81s-1.14,.57-1.14,1.81v11.51c0,1.16,.19,1.96,1.14,1.96s1.17-.67,1.17-2.05v-1.81h4.24Z" fill="#12b2e2"/><path d="M124.32,121.67h-3.17v-3.7h10.54v3.7h-3.19v18.07h-4.18v-18.07Z" fill="#12b2e2"/><path d="M137.36,117.96v21.77h-4.18v-21.77h4.18Z" fill="#12b2e2"/><path d="M150.95,123.79v10.1c0,4.32-2.03,6.17-5.84,6.17s-5.47-1.9-5.47-6.13v-10.25c0-4.2,2.31-6.04,5.66-6.04s5.64,1.8,5.64,6.15Zm-7.07-.47v11.13c0,1.34,.46,2.05,1.4,2.05s1.42-.64,1.42-2.07v-11.14c0-1.36-.38-2.06-1.43-2.06-.89,0-1.39,.64-1.39,2.09Z" fill="#12b2e2"/><path d="M153.2,139.73v-21.77h4.63c.69,2.66,2.87,12.52,3.04,13.47h.1c-.23-2.9-.38-6.86-.38-9.9v-3.58h3.89v21.77h-4.68c-.45-2.07-2.83-13.34-2.97-14.03h-.11c.16,2.56,.29,6.89,.29,10.31v3.72h-3.82Z" fill="#12b2e2"/><path d="M170.46,133.02v1.51c0,1.43,.36,2.1,1.31,2.1s1.19-.99,1.19-2.01c0-2.05-.39-2.65-2.61-4.51-2.45-2.08-3.71-3.31-3.71-6.51s1.03-5.98,5.15-5.98c4.38,0,5.03,2.99,5.03,5.48v1.25h-3.95v-1.3c0-1.32-.22-1.97-1.04-1.97-.77,0-1.02,.66-1.02,1.9,0,1.31,.24,1.96,2.04,3.36,3.2,2.52,4.35,3.93,4.35,7.51s-1.16,6.22-5.49,6.22-5.34-2.5-5.34-5.73v-1.31h4.1Z" fill="#12b2e2"/></g></g></g></svg>