<?xml version="1.0" encoding="UTF-8"?><svg id="b" xmlns="http://www.w3.org/2000/svg" viewBox="0 0 180 224"><path d="M171.06,45.93c5.77-2.72,8.99-8.81,7.89-15.16-1.16-6.68-6.77-11.43-13.66-11.56h-.07s-.07,0-.07,0c-2.74,0-7.4,.84-10.9,5.78l-13.18-16.32-1.06-1.31-.97-.47c-.5-.31-1.03-.56-1.58-.75l-.66-.23-.46-.07c-.5-.1-.99-.15-1.49-.15H54.09c-4.41,0-8,3.59-8,8V63.73c0,.61,.07,1.2,.21,1.8,.07,.31,.16,.62,.27,.91,.21,.58,.49,1.14,.82,1.65l.5,.98,1.39,1.05,19.18,14.28c-1.63,4.54-.87,9.76,2.03,13.66l-3.3-1.5-.05-.02-.05-.02-1.2-.53-.76-.05c-.41-.07-.84-.1-1.26-.1H13.83c-4.41,0-8,3.59-8,8v48.85c0,14.86,8.26,27.82,20.43,34.54H13.48s0,12.83,0,13.69H6.73l.53,8c.03,.4,.05,.79,.06,1.18,.05,1.06,.11,2.26,.29,3.54,.58,4.1,3.36,7.39,7.45,8.79,1.68,.58,3.44,.87,5.22,.87,1.19,0,2.4-.13,3.6-.39,.18-.04,.35-.1,.53-.15h2.53s122.54-.01,122.54-.01v-16.6h3.84v-18.92s-28.53-.04-29.56-.04h-1.34c3.63-2,6.96-4.57,9.83-7.66l14.51-13.79c6.77-6.21,10.65-15.02,10.65-24.19v-32.66c.91,.13,1.81,.19,2.69,.19,4.74,0,8.73-1.82,11.23-5.12,3.07-4.06,3.24-9.5,.46-14.93-.17-.32-.31-.56-.41-.71l-.05-.08-.06-.08c-3.09-4.5-7.61-4.98-9.83-5.07-1.65-1.79-2.83-4.75-4.02-7.92v-13.88c4.27-6.42,10.21-12.86,13.64-15.38Z" fill="#231f20" stroke="#231f20" stroke-linejoin="round"/><path d="M166.06,40.93c5.77-2.72,8.99-8.81,7.89-15.16-1.16-6.68-6.77-11.43-13.66-11.56h-.07s-.07,0-.07,0c-2.74,0-7.4,.84-10.9,5.78l-13.18-16.32-1.06-1.31-.97-.47c-.5-.31-1.03-.56-1.58-.75l-.66-.23-.46-.07c-.5-.1-.99-.15-1.49-.15H49.09c-4.41,0-8,3.59-8,8V58.73c0,.61,.07,1.2,.21,1.8,.07,.31,.16,.62,.27,.91,.21,.58,.49,1.14,.82,1.65l.5,.98,1.39,1.05,19.18,14.28c-1.63,4.54-.87,9.76,2.03,13.66l-3.3-1.5-.05-.02-.05-.02-1.2-.53-.76-.05c-.41-.07-.84-.1-1.26-.1H8.83c-4.41,0-8,3.59-8,8v48.85c0,14.86,8.26,27.82,20.43,34.54H8.48s0,12.83,0,13.69H1.73l.53,8c.03,.4,.05,.79,.06,1.18,.05,1.06,.11,2.26,.29,3.54,.58,4.1,3.36,7.39,7.45,8.79,1.68,.58,3.44,.87,5.22,.87,1.19,0,2.4-.13,3.6-.39,.18-.04,.35-.1,.53-.15h2.53s122.54-.01,122.54-.01v-16.6h3.84v-18.92s-28.53-.04-29.56-.04h-1.34c3.63-2,6.96-4.57,9.83-7.66l14.51-13.79c6.77-6.21,10.65-15.02,10.65-24.19v-32.66c.91,.13,1.81,.19,2.69,.19,4.74,0,8.73-1.82,11.23-5.12,3.07-4.06,3.24-9.5,.46-14.93-.17-.32-.31-.56-.41-.71l-.05-.08-.06-.08c-3.09-4.5-7.61-4.98-9.83-5.07-1.65-1.79-2.83-4.75-4.02-7.92v-13.88c4.27-6.42,10.21-12.86,13.64-15.38Z" fill="#f9f4da" stroke="#231f20" stroke-linejoin="round"/><g><polygon points="73.46 143.12 58.88 143.12 58.88 98.85 73.46 105.5 73.46 143.12" fill="#12b2e2" stroke="#231f20" stroke-linecap="round" stroke-linejoin="round"/><polygon points="93.22 58.73 93.22 73.31 68.66 73.31 49.09 58.73 93.22 58.73" fill="#12b2e2" stroke="#231f20" stroke-linecap="round" stroke-linejoin="round"/><path d="M129.84,8.69l-10.85,152.72-.6,10.54,17.92-17.04h0c4.98-4.55,8.11-11.08,8.11-18.34V26.74l-14.58-18.05Z" fill="#12b2e2" stroke="#231f20" stroke-linecap="round" stroke-linejoin="round"/><path d="M98.41,179.14H40.27c-17.33,0-31.43-14.1-31.43-31.43v-48.85H58.88v30.24h20.92V58.73h-30.71V8.69h80.75V147.7c0,17.33-14.1,31.43-31.43,31.43Z" fill="#f9b728" stroke="#231f20" stroke-linecap="round" stroke-linejoin="round"/><g><path d="M159.68,87.7c-1.7-2.47-4.39-1.07-6.62-2.01-7.33-4.96-7.92-15.6-12.64-22.68,1.64-8.85,15.2-24.76,21.73-29.1,6.24-2.36,4.92-11.57-2-11.71-3.56,0-4.89,3.05-5.52,4.51-11.43,12.05-17.66,21.45-20.24,27.07-3.15-3.48-7.51-15.35-13.03-15.77-4.38-.06-6.63,5.03-3.74,8.38,4.47,5.63,8.53,11.38,12.06,17.7-2.67,8.66-4,17.43-7.39,25.8-.96,2.57-3.93,3.75-3.8,6.78-.07,2.77,2.34,4.97,4.97,4.95,9.57-2.6,10.14-15.92,12.87-23.88,5.76,22.34,29.8,22.57,23.34,9.97Z" fill="#ea203d" stroke="#231f20" stroke-linejoin="round"/><path d="M110.66,75.82c-9.35-11.8-17.56-1.23-15.18-24.54,8.76-1.56,11.23,10.65,18.92,11.48,8.04,.09,7.93-12.48,0-12.37-.28,0-.97-.06-1.43-.57-5.36-7.74-19.68-11.82-25.73-4.4-6.05,7.42-2.82,27.59,8.59,32.4,2.27,1.05,4.85,1.21,6.42,3.34,2.28,3.06,4.28,7.06,3.77,11.02-.32,2.41-2.4,4.5-4.89,4.45-1.4-.32-2.06-1.77-2.87-2.85-4.19-5.2-14.12-16.04-21.59-15.54-9.2,.62-7.27,13.99,1.62,12.3,1.67,1.34,10.31,6.6,11.45,8.4,14.85,20.89,36.36-4.68,20.93-23.12Z" fill="#ea203d" stroke="#231f20" stroke-linejoin="round"/></g><g><path d="M92.5,189.75c.11-.01,.21-.04,.3-.04,2.62,0,5.24-.02,7.86,.03,1.24,.02,2.41,.36,3.37,1.21,.9,.78,1.3,1.82,1.44,2.95,.15,1.21,.15,2.44-.18,3.63-.33,1.21-1.1,2.04-2.36,2.5,.36,.17,.64,.3,.93,.44,.85,.42,1.38,1.1,1.46,2.04,.1,1.06,.11,2.14,.16,3.2,.06,1.15,.1,2.3,.22,3.44,.04,.36,.3,.7,.49,1.12h-.52c-1.24,0-2.47,0-3.71,0-.72,0-1.05-.28-1.14-1.01-.05-.43-.05-.88-.06-1.31,0-.96,0-1.92,0-2.88,0-.31,0-.62-.04-.92-.15-1.36-.92-2.06-2.28-2.11-.39-.01-.77,0-1.21,0v8.2h-4.75v-20.5Zm4.87,8.55c1.03,.33,2.37,0,2.91-.71,.63-.82,.67-2.62,.09-3.47-.5-.73-1.78-1.07-3-.76v4.94Z" fill="#231f20"/><path d="M62.93,210.29c-1.59,0-3.13,0-4.68-.02-.11,0-.29-.22-.31-.36-.18-1.17-.34-2.34-.5-3.54h-3.87c-.21,1.28-.43,2.57-.65,3.89h-4.84c.28-1.27,.55-2.5,.82-3.73,.99-4.48,1.99-8.96,2.98-13.43,.23-1.01,.47-2.02,.68-3.04,.05-.26,.17-.34,.43-.34,1.73,0,3.45,.01,5.18,0,.38,0,.41,.23,.46,.49,.48,2.22,.96,4.44,1.44,6.65,.95,4.39,1.9,8.78,2.85,13.17,.01,.06,0,.13,.02,.28Zm-8.77-7.6h2.72c-.45-2.88-.89-5.72-1.33-8.56-.04,0-.08,0-.12,0-.42,2.83-.84,5.67-1.27,8.55Z" fill="#231f20"/><path d="M36.78,210.26h-4.95c-.19-1.31-.38-2.61-.57-3.93-1.22,0-2.39,0-3.56,0-.34,0-.34,.22-.37,.45-.16,1.03-.32,2.05-.49,3.07-.02,.14-.08,.28-.12,.42h-4.77c.03-.19,.04-.36,.08-.53,.98-4.4,1.96-8.79,2.94-13.19,.47-2.12,.94-4.24,1.39-6.37,.07-.33,.18-.49,.56-.48,1.66,.02,3.32,.02,4.98,0,.33,0,.47,.07,.54,.43,.92,4.34,1.87,8.68,2.81,13.02,.47,2.19,.96,4.37,1.44,6.55,.03,.16,.05,.32,.09,.55Zm-6.07-7.58c-.45-2.92-.9-5.8-1.35-8.68-.03,0-.06,0-.08,0-.43,2.89-.85,5.78-1.28,8.68h2.72Z" fill="#231f20"/><path d="M63.85,203.44h4.49c0,.31-.02,.6,0,.88,.03,.44,.04,.88,.13,1.3,.2,.93,.93,1.46,1.85,1.37,.96-.08,1.48-.67,1.56-1.67,.1-1.15-.3-2.04-1.27-2.66-.7-.44-1.41-.87-2.14-1.27-1.07-.59-2.12-1.22-2.94-2.15-1.45-1.67-1.62-3.64-1.25-5.69,.43-2.39,1.95-3.81,4.36-4.23,1.46-.26,2.89-.18,4.28,.33,1.94,.72,3.05,2.1,3.22,4.17,.05,.63,0,1.26,0,1.94h-4.22c-.05-.56-.06-1.13-.16-1.68-.16-.91-.75-1.36-1.64-1.34-.75,.02-1.33,.6-1.45,1.45-.12,.87,.13,1.62,.84,2.16,.44,.33,.92,.61,1.39,.9,.91,.56,1.85,1.09,2.74,1.68,1.75,1.17,2.69,2.82,2.78,4.94,.05,1.16-.04,2.31-.44,3.41-.72,2-2.25,3.01-4.27,3.32-1.47,.23-2.95,.19-4.39-.29-2.03-.67-3.07-2.16-3.35-4.2-.12-.86-.09-1.75-.13-2.68Z" fill="#231f20"/><path d="M86.13,196.97c0-.61,0-1.17,0-1.74,0-.26-.03-.52-.08-.77-.22-.99-.83-1.43-1.87-1.39-.8,.03-1.31,.54-1.46,1.49-.05,.35-.09,.71-.09,1.07,0,2.92-.02,5.85,0,8.77,0,.51,.09,1.04,.24,1.53,.2,.7,.7,1.02,1.43,1.03,.8,.02,1.43-.29,1.61-1,.19-.76,.23-1.56,.31-2.35,.04-.39,0-.78,0-1.21h4.48c.05,1.3,0,2.58-.2,3.87-.44,2.79-2.21,4.13-4.95,4.45-1.25,.15-2.47,.06-3.68-.22-2.36-.54-3.81-2.15-3.92-4.59-.12-2.76-.11-5.52-.13-8.28,0-1.12,.04-2.24,.09-3.36,.11-2.48,1.4-4.05,3.79-4.69,2.05-.55,4.09-.5,6.07,.33,1.27,.54,2.09,1.5,2.47,2.83,.4,1.37,.5,2.76,.45,4.21h-4.58Z" fill="#231f20"/><path d="M114.68,210.24v-20.48c.11-.02,.2-.05,.29-.05,2.51,0,5.02-.03,7.52,.03,1.54,.04,2.94,.53,3.98,1.75,.69,.82,1.04,1.79,1.15,2.84,.19,1.76,.2,3.52-.61,5.15-.81,1.63-2.16,2.54-3.98,2.64-1.17,.06-2.34,.01-3.56,.01v8.1h-4.8Zm4.89-11.63c1.1,.03,2.25,.19,2.85-.96,.6-1.16,.63-2.41-.08-3.53-.64-1.01-1.73-.85-2.76-.82v5.31Z" fill="#231f20"/><path d="M35.43,189.71h3.8q1.21,0,1.39,1.19c.64,4.22,1.28,8.43,1.93,12.65,.04,.25,.1,.49,.24,.72,.76-4.84,1.52-9.68,2.28-14.54h4.79c-1.47,6.85-2.94,13.67-4.41,20.52h-5.58c-1.47-6.8-2.95-13.63-4.44-20.54Z" fill="#231f20"/><path d="M9.74,203.43h4.03c0,.18,.02,.35,.02,.52,.03,.78,.05,1.56,.11,2.33,.03,.42,.24,.74,.71,.8,.56,.07,1.06-.12,1.19-.54,.12-.38,.17-.79,.17-1.19,.01-5,0-10.01,0-15.01,0-.19,0-.38,0-.6h4.84v.53c0,5.04,.02,10.07-.02,15.11,0,.85-.12,1.73-.36,2.54-.45,1.53-1.63,2.34-3.14,2.67-1.62,.35-3.23,.3-4.81-.24-1.34-.46-2.26-1.34-2.46-2.75-.19-1.36-.2-2.74-.3-4.16Z" fill="#231f20"/><path d="M140.83,189.75v3.92h-3.84v16.6h-4.78v-16.57h-3.81v-3.94h12.44Z" fill="#231f20"/><path d="M112.5,210.26h-4.74v-20.51h4.74v20.51Z" fill="#231f20"/></g></g></svg>