<?xml version="1.0" encoding="UTF-8"?><svg id="b" xmlns="http://www.w3.org/2000/svg" viewBox="0 0 252 246"><path d="M242.66,6.09c-.79,0-1.57,.12-2.32,.34h-.04s-.04,.03-.04,.03l-29.18,9.19c-3.35,1.05-5.6,4.12-5.6,7.63s2.24,6.57,5.58,7.63l1.17,.37-6.19,6.19c-3.58-2.57-7.32-4.66-11.19-6.25-4.74-1.95-9.84-2.93-15.16-2.93-21.33,0-41.68,15.76-51.56,24.77-9.89-9-30.24-24.76-51.56-24.76-5.32,0-10.42,.99-15.16,2.93-17.44,7.15-31.87,24.41-37.65,45.05-1.57,5.59-2.48,11.32-2.73,17.07-3.49,1.42-6.87,2.89-10.08,4.39-2.21,1.03-3.82,3-4.39,5.39-.57,2.39-.02,4.86,1.49,6.78,.17,.22,18.64,24.26,21.06,47.7,.03,.53,.08,1.03,.15,1.53v.07s.04,.2,.04,.2c0,.07,.02,.14,.03,.21,.43,2.64,1.93,5,4.24,6.61,2.63,1.84,6.32,2.7,11.59,2.7,1.93,0,3.96-.11,5.92-.29-9.7,7.01-16.57,17.12-20.21,29.89-1.15,4.01,.92,8.16,4.82,9.66,.33,.13,8.81,3.37,20.5,3.37,2.98,0,5.95-.22,8.81-.64,3.31-.49,6.53-1.26,9.63-2.31,.53,12.07,5.26,23.48,13.99,33.53,1.54,1.76,3.73,2.75,6.04,2.75,1.69,0,3.3-.52,4.67-1.51,.48-.35,11.62-8.51,18.31-23.08,.6-1.31,1.15-2.64,1.65-3.98,.48,1,.89,2.03,1.23,3.09,1.08,3.3,4.14,5.52,7.61,5.52h.11c3.52-.05,6.55-2.34,7.56-5.71,3.3-11.11,14.48-18.29,29.96-28.23,3-1.93,6.25-4.02,9.59-6.24,9.96,13.6,22.1,20.74,35.44,20.74,1.13,0,2.28-.05,3.41-.16,2.54-.23,4.84-1.68,6.14-3.86,1.3-2.18,1.49-4.88,.5-7.23-.03-.07-2.32-5.56-4.42-13.5,.84,.06,1.7,.09,2.59,.09,7.95,0,15.42-2.53,22.22-7.52,2.05-1.5,3.28-3.93,3.26-6.5-.02-2.57-1.28-4.99-3.37-6.48,0,0-1.05-.77-2.71-2.2,2.67-1.74,4.14-4.98,3.52-8.22-1.8-9.64-4.89-39.05,3.46-50.5,2.25-1.61,3.63-4.06,3.75-6.82,.24-5.5-4.41-9.96-16.38-15.44-.08-.3-.16-.6-.25-.9-2.43-8.65-6.39-16.81-11.59-23.92l7.57-7.57,1.23,2.7c1.3,2.85,4.16,4.69,7.28,4.69,.33,0,.67-.02,.99-.06,3.45-.42,6.23-3.02,6.87-6.47l5.66-30.06c.51-2.75-.46-5.6-2.54-7.45-1.46-1.31-3.36-2.03-5.32-2.03h0Z" fill="#231f20" stroke="#231f20" stroke-linecap="round" stroke-linejoin="round"/><path d="M237.66,1.09c-.79,0-1.57,.12-2.32,.34h-.04s-.04,.03-.04,.03l-29.18,9.19c-3.35,1.05-5.6,4.12-5.6,7.63s2.24,6.57,5.58,7.63l1.17,.37-6.19,6.19c-3.58-2.57-7.32-4.66-11.19-6.25-4.74-1.95-9.84-2.93-15.16-2.93-21.33,0-41.68,15.76-51.56,24.77-9.89-9-30.24-24.76-51.56-24.76-5.32,0-10.42,.99-15.16,2.93-17.44,7.15-31.87,24.41-37.65,45.05-1.57,5.59-2.48,11.32-2.73,17.07-3.49,1.42-6.87,2.89-10.08,4.39-2.21,1.03-3.82,3-4.39,5.39-.57,2.39-.02,4.86,1.49,6.78,.17,.22,18.64,24.26,21.06,47.7,.03,.53,.08,1.03,.15,1.53v.07s.04,.2,.04,.2c0,.07,.02,.14,.03,.21,.43,2.64,1.93,5,4.24,6.61,2.63,1.84,6.32,2.7,11.59,2.7,1.93,0,3.96-.11,5.92-.29-9.7,7.01-16.57,17.12-20.21,29.89-1.15,4.01,.92,8.16,4.82,9.66,.33,.13,8.81,3.37,20.5,3.37,2.98,0,5.95-.22,8.81-.64,3.31-.49,6.53-1.26,9.63-2.31,.53,12.07,5.26,23.48,13.99,33.53,1.54,1.76,3.73,2.75,6.04,2.75,1.69,0,3.3-.52,4.67-1.51,.48-.35,11.62-8.51,18.31-23.08,.6-1.31,1.15-2.64,1.65-3.98,.48,1,.89,2.03,1.23,3.09,1.08,3.3,4.14,5.52,7.61,5.52h.11c3.52-.05,6.55-2.34,7.56-5.71,3.3-11.11,14.48-18.29,29.96-28.23,3-1.93,6.25-4.02,9.59-6.24,9.96,13.6,22.1,20.74,35.44,20.74,1.13,0,2.28-.05,3.41-.16,2.54-.23,4.84-1.68,6.14-3.86,1.3-2.18,1.49-4.88,.5-7.23-.03-.07-2.32-5.56-4.42-13.5,.84,.06,1.7,.09,2.59,.09,7.95,0,15.42-2.53,22.22-7.52,2.05-1.5,3.28-3.93,3.26-6.5-.02-2.57-1.28-4.99-3.37-6.48,0,0-1.05-.77-2.71-2.2,2.67-1.74,4.14-4.98,3.52-8.22-1.8-9.64-4.89-39.05,3.46-50.5,2.25-1.61,3.63-4.06,3.75-6.82,.24-5.5-4.41-9.96-16.38-15.44-.08-.3-.16-.6-.25-.9-2.43-8.65-6.39-16.81-11.59-23.92l7.57-7.57,1.23,2.7c1.3,2.85,4.16,4.69,7.28,4.69,.33,0,.67-.02,.99-.06,3.45-.42,6.23-3.02,6.87-6.47l5.66-30.06c.51-2.75-.46-5.6-2.54-7.45-1.46-1.31-3.36-2.03-5.32-2.03h0Z" fill="#f0f4da" stroke="#231f20" stroke-linecap="round" stroke-linejoin="round"/><g><g><path d="M100.24,161.74s-53.56-12-66.68,33.99c0,0,45.16,17.42,66.68-33.99Z" fill="#0ba65b" stroke="#231f20" stroke-linecap="round" stroke-linejoin="round"/><line x1="98.05" y1="162.93" x2="44.45" y2="190.2" fill="#0ba65b" stroke="#231f20" stroke-linecap="round" stroke-linejoin="round"/><polyline points="46.05 180.44 55.5 184.59 54.99 194.38" fill="none" stroke="#231f20" stroke-linecap="round" stroke-linejoin="round"/><polyline points="54.61 176.02 64.06 180.17 63.55 189.96" fill="none" stroke="#231f20" stroke-linecap="round" stroke-linejoin="round"/><polyline points="64.06 171.43 73.5 175.57 73 185.36" fill="none" stroke="#231f20" stroke-linecap="round" stroke-linejoin="round"/></g><g><path d="M97.61,157.49s-39.3,38.32-7.94,74.42c0,0,39.25-28.32,7.94-74.42Z" fill="#0ba65b" stroke="#231f20" stroke-linecap="round" stroke-linejoin="round"/><line x1="97.41" y1="159.97" x2="90.98" y2="219.77" fill="#0ba65b" stroke="#231f20" stroke-linecap="round" stroke-linejoin="round"/><polyline points="83.68 213.1 92.31 207.45 100.24 213.22" fill="none" stroke="#231f20" stroke-linecap="round" stroke-linejoin="round"/><polyline points="84.65 203.51 93.28 197.86 101.21 203.63" fill="none" stroke="#231f20" stroke-linecap="round" stroke-linejoin="round"/><polyline points="85.96 193.09 94.59 187.44 102.52 193.21" fill="none" stroke="#231f20" stroke-linecap="round" stroke-linejoin="round"/></g><path d="M165.25,152.82s13.46,42.27,43.23,39.57c0,0-5.24-12.32-7.51-27.65,0,0,14.76,8.72,30.53-2.86,0,0-25.26-17.92-28.53-45.59" fill="#f0f4da" stroke="#231f20" stroke-linecap="round" stroke-linejoin="round"/><path d="M55.87,154.21s-22.79,4.43-23.64-.9c-1.98-12.38,16.23-15.6,16.23-15.6l9.45,8.02-2.04,8.48Z" fill="#f0f4da" stroke="#231f20" stroke-linecap="round" stroke-linejoin="round"/><path d="M220.89,77.89s19.97,8.47,14.21,10.35c-5.77,1.88-21.67,8.66-21.67,8.66l-1.67-15.99,9.14-3.02Z" fill="#f0f4da" stroke="#231f20" stroke-linecap="round" stroke-linejoin="round"/><path d="M186.82,33.63c-29.22-11.99-63.69,25.6-63.69,25.6,0,0-34.47-37.59-63.69-25.6-29.22,11.99-51.7,59.19-20.23,101.9,31.47,42.71,74.79,48.43,83.92,76.43,8.29-27.88,52.45-33.72,83.92-76.43,31.47-42.71,8.99-89.91-20.23-101.9Z" fill="#ea203d" stroke="#231f20" stroke-linejoin="round"/><path d="M9.35,99.98c13.32-6.24,31.63-12.9,55.95-17.99,27.2-5.7,64.34-1.05,103.65,3.88,19.25,2.41,42.54,8.23,66.14,2.38-14.03,16.14-6.03,58.2-6.03,58.2-21.66,7.33-41.95,.15-67.31-3.03-31.33-3.93-66.84-8.38-84.55-4.67-21.24,4.45-44.98,14.56-44.98,14.56-2.06-26.76-22.87-53.33-22.87-53.33Z" fill="#f0f4da" stroke="#231f20" stroke-linecap="round" stroke-linejoin="round"/><g><line x1="61.27" y1="126.26" x2="55.87" y2="106.31" fill="none" stroke="#231f20" stroke-miterlimit="10"/><line x1="65.21" y1="125.21" x2="59.81" y2="105.26" fill="none" stroke="#231f20" stroke-miterlimit="10"/><line x1="54.36" y1="106.79" x2="61.45" y2="104.99" fill="none" stroke="#231f20" stroke-linecap="round" stroke-miterlimit="10"/><line x1="56.79" y1="115.98" x2="63.88" y2="114.18" fill="none" stroke="#231f20" stroke-linecap="round" stroke-miterlimit="10"/><line x1="43.08" y1="109.79" x2="47.06" y2="108.78" fill="none" stroke="#231f20" stroke-linecap="round" stroke-miterlimit="10"/><line x1="59.81" y1="126.56" x2="66.9" y2="124.76" fill="none" stroke="#231f20" stroke-linecap="round" stroke-miterlimit="10"/><path d="M45.07,109.35s2.17,9.3,3.26,12.77c2.5,7.98,11.26,7.25,11.26-2.06" fill="none" stroke="#231f20" stroke-linecap="round" stroke-miterlimit="10"/><path d="M70.51,117.73s1.85,6.65,8.42,5.61c4.79-.76,7.95-3.52,7.29-8.34-.66-4.82-7.56-4.54-10.7-5.25-5.01-1.13-5.07-7.68,1.88-7.25" fill="none" stroke="#231f20" stroke-linecap="round" stroke-miterlimit="10"/><path d="M81.16,104.99c-1.23-1.57-3.39-3.16-6.96-2.59-4.79,.76-6.85,3.08-6.01,7.34,.84,4.26,7.79,5.12,10.92,5.85,5.93,1.38,4.87,6.15,1.09,7.48" fill="none" stroke="#231f20" stroke-linecap="round" stroke-miterlimit="10"/><path d="M80.21,123.07c3.78-1.32,4.84-6.09-1.09-7.48-.52-.12-1.16-.25-1.85-.39l1.37-4.99c3.25,.45,7.1,1.24,7.58,4.78,.66,4.82-2.5,7.58-7.29,8.34" fill="#231f20"/><line x1="69" y1="117.82" x2="72.4" y2="117.54" fill="none" stroke="#231f20" stroke-linecap="round" stroke-miterlimit="10"/><line x1="104.99" y1="116.49" x2="108.41" y2="116.59" fill="none" stroke="#231f20" stroke-linecap="round" stroke-miterlimit="10"/><line x1="79.63" y1="105.66" x2="82.84" y2="104.48" fill="none" stroke="#231f20" stroke-linecap="round" stroke-miterlimit="10"/><path d="M87.66,111.88h20.27s-.23-10.4-8.56-10.4c-6.99,0-10.12,4.52-10.12,10.79s5.59,10.88,10.07,10.79c6.29-.13,7.43-6.42,7.43-6.42" fill="none" stroke="#231f20" stroke-linecap="round" stroke-miterlimit="10"/><path d="M98.81,101.48c-3.58,1.23-5.19,5.38-5.19,11.2s2.11,9.35,5.69,10.38" fill="none" stroke="#231f20" stroke-linecap="round" stroke-miterlimit="10"/><path d="M99.32,123.05c-3.58-1.02-5.69-4.56-5.69-10.38l.05-.79-4.43,.04c0,6.78,5.59,11.22,10.07,11.13" fill="#231f20"/><path d="M142.93,99.53s-2.12,16.24-2.59,20.53c-.47,4.29,1.57,6.04,3.89,6.31,2.32,.27,5.05-1.19,5.05-1.19" fill="none" stroke="#231f20" stroke-linecap="round" stroke-miterlimit="10"/><path d="M147.53,100.08s-1.99,17.43-2.3,20.42c-.31,2.99-.78,5.99,2.39,5.37" fill="none" stroke="#231f20" stroke-linecap="round" stroke-miterlimit="10"/><path d="M149.29,125.18s-2.73,1.46-5.05,1.19c-2.32-.27-4.36-2.01-3.89-6.31,.47-4.29,1.12-7.88,1.12-7.88l4.6,.56s-.53,4.78-.84,7.76c-.31,2.99-.78,5.99,2.39,5.37" fill="#231f20"/><line x1="141.61" y1="99.26" x2="148.88" y2="100.09" fill="none" stroke="#231f20" stroke-linecap="round" stroke-miterlimit="10"/><line x1="140.13" y1="112.04" x2="147.4" y2="112.88" fill="none" stroke="#231f20" stroke-linecap="round" stroke-miterlimit="10"/><line x1="146.68" y1="107.51" x2="151.02" y2="108.02" fill="none" stroke="#231f20" stroke-linecap="round" stroke-miterlimit="10"/><line x1="138.61" y1="106.57" x2="141.97" y2="106.96" fill="none" stroke="#231f20" stroke-linecap="round" stroke-miterlimit="10"/><line x1="138.69" y1="105.13" x2="138.3" y2="108.37" fill="none" stroke="#231f20" stroke-linecap="round" stroke-miterlimit="10"/><line x1="151.29" y1="106.4" x2="150.9" y2="109.64" fill="none" stroke="#231f20" stroke-linecap="round" stroke-miterlimit="10"/><line x1="148.85" y1="124.12" x2="149.89" y2="126.23" fill="none" stroke="#231f20" stroke-linecap="round" stroke-miterlimit="10"/><path d="M180.82,104.38s-2.12,16.24-2.59,20.53c-.47,4.29,1.57,6.04,3.89,6.31,2.32,.27,5.05-1.19,5.05-1.19" fill="none" stroke="#231f20" stroke-linecap="round" stroke-miterlimit="10"/><path d="M185.42,104.94s-1.99,17.43-2.3,20.42c-.31,2.99-.78,5.99,2.39,5.37" fill="none" stroke="#231f20" stroke-linecap="round" stroke-miterlimit="10"/><path d="M187.18,130.03s-2.73,1.46-5.05,1.19c-2.32-.27-4.36-2.01-3.89-6.31,.47-4.29,1.12-7.88,1.12-7.88l4.6,.56s-.53,4.78-.84,7.76c-.31,2.99-.78,5.99,2.39,5.37" fill="#231f20"/><line x1="179.51" y1="104.11" x2="186.77" y2="104.95" fill="none" stroke="#231f20" stroke-linecap="round" stroke-miterlimit="10"/><line x1="178.02" y1="116.9" x2="185.29" y2="117.73" fill="none" stroke="#231f20" stroke-linecap="round" stroke-miterlimit="10"/><line x1="184.58" y1="112.36" x2="188.91" y2="112.87" fill="none" stroke="#231f20" stroke-linecap="round" stroke-miterlimit="10"/><line x1="176.5" y1="111.42" x2="179.86" y2="111.81" fill="none" stroke="#231f20" stroke-linecap="round" stroke-miterlimit="10"/><line x1="176.58" y1="109.98" x2="176.2" y2="113.22" fill="none" stroke="#231f20" stroke-linecap="round" stroke-miterlimit="10"/><line x1="189.18" y1="111.25" x2="188.8" y2="114.49" fill="none" stroke="#231f20" stroke-linecap="round" stroke-miterlimit="10"/><line x1="186.74" y1="128.97" x2="187.78" y2="131.08" fill="none" stroke="#231f20" stroke-linecap="round" stroke-miterlimit="10"/><path d="M156.53,113.03s1.23-6.48,8.41-5.52c7.18,.96,7.8,4.52,7.25,9.45-.55,4.93-1.58,12.64-1.58,12.64" fill="none" stroke="#231f20" stroke-linecap="round" stroke-miterlimit="10"/><path d="M161.53,107.65c.7-.14,6.91,.4,6.23,6.08-.68,5.68-1.66,15.16-1.66,15.16" fill="none" stroke="#231f20" stroke-linecap="round" stroke-miterlimit="10"/><line x1="164.44" y1="128.8" x2="171.96" y2="129.8" fill="none" stroke="#231f20" stroke-linecap="round" stroke-miterlimit="10"/><line x1="155.32" y1="112.96" x2="158.08" y2="113.31" fill="none" stroke="#231f20" stroke-linecap="round" stroke-miterlimit="10"/><path d="M173.5,118.22s-9.36-1.15-12.25-1.27-8.63,1.09-7.69,6.17c.94,5.08,9.44,7.28,13.04,1.01" fill="none" stroke="#231f20" stroke-linecap="round" stroke-miterlimit="10"/><line x1="78.86" y1="109.35" x2="77.06" y2="115.98" fill="none" stroke="#231f20" stroke-linecap="round" stroke-miterlimit="10"/><path d="M114.24,115.53s1.01,9.18,9.91,9.23c6.49,.04,11.27-2.92,11.44-9.44,.17-6.52-9.01-7.64-13-9.26-6.37-2.58-5.03-11.25,4.06-9.17" fill="none" stroke="#231f20" stroke-linecap="round" stroke-miterlimit="10"/><path d="M131.08,101.01c-1.29-2.34-3.8-4.91-8.64-4.93-6.49-.04-9.72,2.59-9.53,8.4s9.18,8.46,13.16,10.1c7.53,3.11,5.1,9.18-.18,10.11" fill="none" stroke="#231f20" stroke-linecap="round" stroke-miterlimit="10"/><path d="M125.9,124.69c5.28-.93,7.71-7,.18-10.11-.67-.28-1.47-.58-2.36-.92l2.89-6.3c4.2,1.3,9.11,3.18,8.98,7.96-.17,6.52-4.95,9.48-11.44,9.44" fill="#231f20"/><line x1="112.23" y1="115.32" x2="116.79" y2="115.7" fill="none" stroke="#231f20" stroke-linecap="round" stroke-miterlimit="10"/><line x1="128.92" y1="101.56" x2="133.41" y2="100.69" fill="none" stroke="#231f20" stroke-linecap="round" stroke-miterlimit="10"/><line x1="127.09" y1="106.27" x2="123.28" y2="114.63" fill="none" stroke="#231f20" stroke-linecap="round" stroke-miterlimit="10"/><polygon points="58.34 115.45 61.27 126.26 65.21 125.21 62.33 114.57 58.34 115.45" fill="#231f20"/><line x1="206.32" y1="127.25" x2="209.71" y2="127.65" fill="none" stroke="#231f20" stroke-linecap="round" stroke-miterlimit="10"/><path d="M189.47,121.14l20.19,1.78s.69-10.38-7.62-11.12c-6.97-.61-10.48,3.62-11.03,9.86-.55,6.24,4.62,11.33,9.08,11.63,6.28,.43,7.96-5.74,7.96-5.74" fill="none" stroke="#231f20" stroke-linecap="round" stroke-miterlimit="10"/><path d="M201.49,111.76c-3.67,.91-5.64,4.9-6.16,10.7-.51,5.79,1.28,9.5,4.76,10.84" fill="none" stroke="#231f20" stroke-linecap="round" stroke-miterlimit="10"/><path d="M200.09,133.29c-3.48-1.33-5.27-5.04-4.76-10.84l.12-.79-4.41-.35c-.6,6.75,4.59,11.67,9.05,11.97" fill="#231f20"/><polygon points="167.33 117.5 166.1 128.89 170.61 129.6 172.14 118.05 167.33 117.5" fill="#231f20"/></g><path d="M65.21,39.56s-23.58,6.89-28.54,34.47" fill="none" stroke="#f0f4da" stroke-linecap="round" stroke-miterlimit="10"/><path d="M65.72,46.19s-18.59,5.43-22.49,27.17" fill="none" stroke="#f0f4da" stroke-linecap="round" stroke-miterlimit="10"/><path d="M65.05,53.49s-11.66,3.41-14.11,17.04" fill="none" stroke="#f0f4da" stroke-linecap="round" stroke-miterlimit="10"/><polyline points="186.28 58.55 225.58 19.25 229.14 22.81 189.84 62.11" fill="#f9b728" stroke="#231f20" stroke-linecap="round" stroke-linejoin="round"/><line x1="183.84" y1="56.2" x2="192.85" y2="65.04" fill="none" stroke="#231f20" stroke-linecap="round" stroke-miterlimit="10"/><polygon points="237.66 9.09 208.47 18.29 224.87 23.5 231.99 39.16 237.66 9.09" fill="#f97428" stroke="#231f20" stroke-linejoin="round"/></g></svg>