<?xml version="1.0" encoding="UTF-8"?><svg id="b" xmlns="http://www.w3.org/2000/svg" viewBox="0 0 174 218"><path d="M162.63,6.44H15.7c-2.26,0-4.43,.96-5.94,2.64-1.52,1.69-2.25,3.94-2.02,6.18l1.42,13.62c-.77,4.32-2.74,18.02,.82,29.86-4.05,15.2-4.38,32.26-4.38,52.77,0,21.52,1.04,41.06,3.11,58.08,.02,.2,.06,.4,.1,.59,1.51,12.3,3.16,20.02,4.02,23.56l-3.33,12.82c-.62,2.45-.1,4.96,1.42,6.92,1.49,1.93,3.86,3.1,6.32,3.1H164.03c2.45,0,4.73-1.1,6.25-3.01,1.53-1.92,2.09-4.39,1.54-6.78l-2.87-12.64c.88-3.87,2.59-13.36,1.45-25.48,3-21.84,3-57.05,3-57.05,0-.79,0-1.81,0-2.23-.1-48.8-3.67-74.67-4.55-80.34l1.71-13.6c.28-2.29-.42-4.57-1.94-6.29-1.51-1.72-3.7-2.71-6-2.71h0Z" fill="#231f20" stroke="#231f20" stroke-linecap="round" stroke-linejoin="round"/><path d="M157.63,1.44H10.7c-2.26,0-4.43,.96-5.94,2.64-1.52,1.69-2.25,3.94-2.02,6.18l1.42,13.62c-.77,4.32-2.74,18.02,.82,29.86C.93,68.93,.59,85.99,.59,106.5c0,21.52,1.04,41.06,3.11,58.08,.02,.2,.06,.4,.1,.59,1.51,12.3,3.16,20.02,4.02,23.56l-3.33,12.82c-.62,2.45-.1,4.96,1.42,6.92,1.49,1.93,3.86,3.1,6.32,3.1H159.03c2.45,0,4.73-1.1,6.25-3.01,1.53-1.92,2.09-4.39,1.54-6.78l-2.87-12.64c.88-3.87,2.59-13.36,1.45-25.48,3-21.84,3-57.05,3-57.05,0-.79,0-1.81,0-2.23-.1-48.8-3.67-74.67-4.55-80.34l1.71-13.6c.28-2.29-.42-4.57-1.94-6.29-1.51-1.72-3.7-2.71-6-2.71h0Z" fill="#f0f4da" stroke="#231f20" stroke-linecap="round" stroke-linejoin="round"/><g><polygon points="159.03 203.56 12.22 203.56 16.08 188.74 155.67 188.74 159.03 203.56" fill="#ea203d" stroke="#231f20" stroke-linejoin="round"/><path d="M8.59,107.66c.1,56.15,7.49,81.07,7.49,81.07H155.81s3.07-10.49,1.55-25.12c1.67-15.42,3-31.6,3.05-55.95H8.59Z" fill="#ea203d" stroke="#231f20" stroke-linejoin="round"/><polygon points="155.77 24.26 12.24 24.26 10.7 9.44 157.63 9.44 155.77 24.26" fill="#f97428" stroke="#231f20" stroke-linejoin="round"/><path d="M160.4,109.1c0-.87,.01-1.72,.01-2.6,0-56.98-4.62-82.24-4.62-82.24H12.23s-3.63,16.94,1.12,29.25c-4.26,14.29-4.76,30.53-4.76,52.99,0,.88,0,1.73,.01,2.6H160.4Z" fill="#f97428" stroke="#231f20" stroke-linejoin="round"/><g><path d="M22.41,39l10.17-1.79v4.17l-5.45,.96v5.59l5.14-.91v4.17l-5.14,.91v10.59l-4.72,.83v-24.52Z" fill="#f0f4da"/><path d="M39.13,36.05v18.67c0,1.43,.43,2.12,1.51,1.93,1.14-.2,1.49-1.13,1.49-2.46v-18.67l4.77-.84v18.37c0,4.35-2,6.85-6.34,7.61-4.26,.75-6.19-.99-6.19-5.44v-18.33l4.75-.84Z" fill="#f0f4da"/><path d="M49.71,34.19l4.72-.83v20.39l5.93-1.05-.42,4.2-10.23,1.8v-24.52Z" fill="#f0f4da"/><path d="M61.99,32.02l4.72-.83v20.39l5.93-1.05-.42,4.2-10.23,1.8v-24.52Z" fill="#f0f4da"/></g><g><path d="M51.34,80.29v1.7c0,1.61,.4,2.29,1.48,2.1,1.09-.19,1.34-1.35,1.34-2.5,0-2.31-.44-2.91-2.94-4.56-2.76-1.85-4.18-2.99-4.18-6.6s1.16-6.93,5.81-7.75c4.93-.87,5.66,2.37,5.66,5.17v1.41l-4.45,.79v-1.47c0-1.49-.24-2.18-1.18-2.02-.87,.15-1.15,.95-1.15,2.34,0,1.48,.27,2.16,2.3,3.38,3.61,2.2,4.9,3.56,4.9,7.6s-1.31,7.23-6.18,8.09c-4.68,.83-6.01-1.76-6.01-5.39v-1.47l4.62-.81Z" fill="#f0f4da"/><path d="M61.11,86.12v-24.52l5.22-.92c.78,2.85,3.24,13.53,3.43,14.57l.11-.02c-.26-3.22-.43-7.65-.43-11.07v-4.03l4.38-.77v24.52l-5.27,.93c-.51-2.24-3.19-14.46-3.35-15.21l-.13,.02c.18,2.85,.33,7.7,.33,11.56v4.19l-4.3,.76Z" fill="#f0f4da"/><path d="M81,76.78l-.6,5.94-4.81,.85,3.47-25.13,7.03-1.24,3.55,23.89-4.91,.87-.68-5.72-3.05,.54Zm2.66-4.63c-.35-3.08-.84-7.76-1.07-10.07l-.19,.03c-.08,1.72-.67,7.34-.99,10.43l2.25-.4Z" fill="#f0f4da"/><path d="M103.16,70.71v1.33c0,3.09-.57,7.14-6.19,8.14-4.15,.73-5.96-1.16-5.96-5.67v-12.02c0-4.26,2.13-6.89,6.06-7.58,5.18-.91,6.02,2.35,6.02,5.56v1.54l-4.75,.84v-2.09c0-1.35-.29-1.98-1.27-1.81-.97,.17-1.29,.87-1.29,2.26v12.97c0,1.31,.22,2.16,1.28,1.98,1.02-.18,1.32-.98,1.32-2.54v-2.04l4.77-.84Z" fill="#f0f4da"/><path d="M105.17,53.84l4.57-.81v10.68h.07c.78-2.46,2.39-7.76,3.5-11.31l5.2-.92-4.11,10.22,4.27,14.27-5.1,.9-2.42-9.91-1.4,3.38v7.21l-4.57,.81v-24.52Z" fill="#f0f4da"/></g><g><path d="M105.06,155.14l6.34-1.12c5.52-.97,7.43,1.21,7.43,6.76v10.08c0,4.62-.98,8.84-7.08,9.91l-6.69,1.18v-26.81Zm5.16,21.74l1.01-.18c2.02-.36,2.36-1.73,2.36-3.83v-12.01c0-1.98-.44-2.98-2.4-2.63l-.97,.17v18.47Z" fill="#f0f4da"/><path d="M132.28,165.31l-5.53,.98v7.31l6.48-1.14-.62,4.64-11.03,1.94v-26.81l10.99-1.94v4.56l-5.82,1.03v5.88l5.53-.98v4.53Z" fill="#f0f4da"/><path d="M137.88,176.16l-4.02-26.1,5.48-.97,.96,9.76c.33,3.39,.75,7.2,.94,10.58l.21-.04c.17-3.44,.61-7.19,.9-10.87l.84-10.12,5.39-.95-3.96,27.51-6.72,1.19Z" fill="#f0f4da"/></g><path d="M8.59,106.5c0,24.93,1.43,43.79,3.05,57.12l148.05-27.79c.45-8.64,.72-18.4,.72-29.33,0-11.48-.52-30.67-.52-30.67L8.59,104.4s0,1.39,0,2.1Z" fill="#f9b728" stroke="#231f20" stroke-linecap="round" stroke-linejoin="round"/><g><path d="M62.06,172.28c-2.19-1.39-3.37-3.94-2.98-6.51l9.43-63.52c-2.15-3.63-2.2-8.29,.14-12,3.39-5.36,10.5-6.96,15.86-3.57l45.01,28.45c5.36,3.39,6.96,10.5,3.57,15.86-2.34,3.71-6.57,5.66-10.77,5.28l-6.06,4.02-8.42,5.71c-.07,.05-.14,.1-.21,.14l-38.38,26.02c-2.16,1.46-4.98,1.51-7.18,.12Z" fill="#231f20" stroke="#231f20" stroke-linejoin="round"/><path d="M61.19,169.78c-2.19-1.39-3.37-3.94-2.98-6.51l9.43-63.52c-2.15-3.63-2.2-8.29,.14-12,3.39-5.36,10.5-6.96,15.86-3.57l45.01,28.45c5.36,3.39,6.96,10.5,3.57,15.86-2.34,3.71-6.57,5.66-10.77,5.28l-6.06,4.02-8.42,5.71c-.07,.05-.14,.1-.21,.14l-38.38,26.02c-2.16,1.46-4.98,1.51-7.18,.12Z" fill="#f6f1d7" stroke="#231f20" stroke-linejoin="round"/><g><polygon points="73.12 107.77 75.18 93.27 124.06 124.18 111.77 132.33 73.12 107.77" fill="#ea203d" stroke="#231f20" stroke-linejoin="round"/><rect x="68.44" y="103.19" width="63.12" height="9.87" rx="4.94" ry="4.94" transform="translate(73.26 -36.7) rotate(32.3)" fill="#f97428" stroke="#231f20" stroke-linejoin="round"/><path d="M64.69,164.24l50.25-34.06h0s.05-.05,.07-.08c0,0,.01-.02,.02-.02,0,0,.03-.03,.04-.05,.01-.02,.01-.02,.02-.03l.03-.05,.02-.03s.02-.03,.02-.05c0-.02,.01-.03,.01-.04,0-.02,.01-.03,.02-.05,0-.01,0-.03,.01-.04,0-.01,.01-.03,.01-.05,0-.02,0-.03,0-.04,0-.01,0-.03,0-.05,0-.02,0-.03,0-.04,0-.01,0-.03,0-.05v-.04s0-.04,0-.06c0-.02,0-.01,0-.02-.03-.21-.13-.41-.28-.55l-2.04-1.99c-1.98-1.94-4.35-3.44-6.96-4.4-2.72-.99-5.19-2.56-7.26-4.59-1.98-1.94-4.35-3.44-6.96-4.4-2.72-.99-5.19-2.56-7.26-4.59-1.98-1.94-4.35-3.44-6.96-4.4l-2.64-.97c-.21-.08-.43-.08-.64-.01,0,0-.01,0-.02,0-.02,0-.04,.01-.06,.02-.02,0-.03,.01-.04,.02-.01,0-.03,.02-.05,.03-.02,0-.03,.01-.04,.02s-.03,.02-.04,.03c-.01,0-.02,.02-.03,.03-.01,.01-.03,.02-.04,.03-.01,.01-.02,.02-.03,.03s-.02,.03-.04,.04c-.01,.01-.02,.02-.03,.03s-.02,.03-.03,.04l-.02,.04-.03,.05-.02,.03s-.02,.04-.02,.06c0,0-.01,.02-.01,.03-.01,.03-.02,.06-.03,.09h0s-8.98,60.14-8.98,60.14Z" fill="#f9b728" stroke="#231f20" stroke-linejoin="round"/><circle cx="91.05" cy="124.59" r="6.17" fill="#ea203d" stroke="#231f20" stroke-linejoin="round"/><path d="M101.71,136.83c-2.88-1.82-6.69-.96-8.51,1.92-1.25,1.97-1.21,4.37-.15,6.28l10.13-6.87c-.41-.5-.88-.97-1.46-1.33Z" fill="#ea203d" stroke="#231f20" stroke-linejoin="round"/><path d="M83.06,144.52c-2.88-1.82-6.69-.96-8.51,1.92-1.82,2.88-.96,6.69,1.92,8.51,.36,.23,.73,.41,1.11,.55l8.34-5.65c.04-2.08-.96-4.14-2.85-5.33Z" fill="#ea203d" stroke="#231f20" stroke-linejoin="round"/><path d="M78.99,135.73c1.82-2.88,.96-6.69-1.92-8.51-2.19-1.38-4.9-1.21-6.89,.2l-1.31,8.74c.43,.57,.96,1.08,1.59,1.49,2.88,1.82,6.69,.96,8.51-1.92Z" fill="#ea203d" stroke="#231f20" stroke-linejoin="round"/><path d="M72.96,108.84l-1.8,12.07c2.55,.71,5.37-.27,6.85-2.62,1.82-2.88,.96-6.69-1.92-8.51-.98-.62-2.06-.9-3.13-.93Z" fill="#ea203d" stroke="#231f20" stroke-linejoin="round"/></g></g><g><line x1="24.81" y1="14.8" x2="24.81" y2="24.26" fill="none" stroke="#231f20" stroke-linecap="round" stroke-linejoin="round"/><line x1="34.77" y1="14.8" x2="34.77" y2="24.26" fill="none" stroke="#231f20" stroke-linecap="round" stroke-linejoin="round"/><line x1="44.73" y1="14.8" x2="44.73" y2="24.26" fill="none" stroke="#231f20" stroke-linecap="round" stroke-linejoin="round"/><line x1="54.69" y1="14.8" x2="54.69" y2="24.26" fill="none" stroke="#231f20" stroke-linecap="round" stroke-linejoin="round"/><line x1="74.61" y1="14.8" x2="74.61" y2="24.26" fill="none" stroke="#231f20" stroke-linecap="round" stroke-linejoin="round"/><line x1="84.56" y1="14.8" x2="84.56" y2="24.26" fill="none" stroke="#231f20" stroke-linecap="round" stroke-linejoin="round"/><line x1="94.52" y1="14.8" x2="94.52" y2="24.26" fill="none" stroke="#231f20" stroke-linecap="round" stroke-linejoin="round"/><line x1="104.48" y1="14.8" x2="104.48" y2="24.26" fill="none" stroke="#231f20" stroke-linecap="round" stroke-linejoin="round"/><line x1="114.44" y1="14.8" x2="114.44" y2="24.26" fill="none" stroke="#231f20" stroke-linecap="round" stroke-linejoin="round"/><line x1="124.4" y1="14.8" x2="124.4" y2="24.26" fill="none" stroke="#231f20" stroke-linecap="round" stroke-linejoin="round"/><line x1="134.36" y1="14.8" x2="134.36" y2="24.26" fill="none" stroke="#231f20" stroke-linecap="round" stroke-linejoin="round"/><line x1="144.32" y1="14.8" x2="144.32" y2="24.26" fill="none" stroke="#231f20" stroke-linecap="round" stroke-linejoin="round"/><line x1="64.65" y1="14.8" x2="64.65" y2="24.26" fill="none" stroke="#231f20" stroke-linecap="round" stroke-linejoin="round"/></g><g><line x1="24.81" y1="188.74" x2="24.81" y2="198.2" fill="none" stroke="#231f20" stroke-linecap="round" stroke-linejoin="round"/><line x1="34.77" y1="188.74" x2="34.77" y2="198.2" fill="none" stroke="#231f20" stroke-linecap="round" stroke-linejoin="round"/><line x1="44.73" y1="188.74" x2="44.73" y2="198.2" fill="none" stroke="#231f20" stroke-linecap="round" stroke-linejoin="round"/><line x1="54.69" y1="188.74" x2="54.69" y2="198.2" fill="none" stroke="#231f20" stroke-linecap="round" stroke-linejoin="round"/><line x1="74.61" y1="188.74" x2="74.61" y2="198.2" fill="none" stroke="#231f20" stroke-linecap="round" stroke-linejoin="round"/><line x1="84.56" y1="188.74" x2="84.56" y2="198.2" fill="none" stroke="#231f20" stroke-linecap="round" stroke-linejoin="round"/><line x1="94.52" y1="188.74" x2="94.52" y2="198.2" fill="none" stroke="#231f20" stroke-linecap="round" stroke-linejoin="round"/><line x1="104.48" y1="188.74" x2="104.48" y2="198.2" fill="none" stroke="#231f20" stroke-linecap="round" stroke-linejoin="round"/><line x1="114.44" y1="188.74" x2="114.44" y2="198.2" fill="none" stroke="#231f20" stroke-linecap="round" stroke-linejoin="round"/><line x1="124.4" y1="188.74" x2="124.4" y2="198.2" fill="none" stroke="#231f20" stroke-linecap="round" stroke-linejoin="round"/><line x1="134.36" y1="188.74" x2="134.36" y2="198.2" fill="none" stroke="#231f20" stroke-linecap="round" stroke-linejoin="round"/><line x1="144.32" y1="188.74" x2="144.32" y2="198.2" fill="none" stroke="#231f20" stroke-linecap="round" stroke-linejoin="round"/><line x1="64.65" y1="188.74" x2="64.65" y2="198.2" fill="none" stroke="#231f20" stroke-linecap="round" stroke-linejoin="round"/></g></g></svg>